<svg data-name="Capa 1" xmlns="http://www.w3.org/2000/svg" viewBox="0 0 512 512"><path d="M259.4 95.57H136.53a10.24 10.24 0 1 0 0 20.48H259.4a10.24 10.24 0 1 0 0-20.48z"/><path d="M467.61 136.53c0-15-8.95-35.73-19.89-46l-76.28-71.81C360.51 8.42 339.28 0 324.25 0H71.68a27.38 27.38 0 0 0-27.31 27.31V484.7A27.38 27.38 0 0 0 71.68 512h368.64a27.4 27.4 0 0 0 27.31-27.3zM344.73 25.78c5 2.27 9.67 5 12.68 7.85l76.28 71.79a40.49 40.49 0 0 1 7.44 10.63H361.8A17.12 17.12 0 0 1 344.74 99V25.78zm95.59 465.74H71.68a6.92 6.92 0 0 1-6.83-6.82V27.31a6.92 6.92 0 0 1 6.83-6.83h252.57V99a37.63 37.63 0 0 0 37.55 37.55h85.33v348.16a6.93 6.93 0 0 1-6.81 6.81z"/><path d="M392.53 303.79a126.22 126.22 0 0 0-246.26-39.11l-3.61-1.35a13.19 13.19 0 0 0-4.63-.86 12.68 12.68 0 0 0-12.14 9.1s-6.42 21-6.42 39.71a139.26 139.26 0 0 0 139.26 139.28c21.27 0 46.5-8.89 46.5-8.89a12.31 12.31 0 0 0 7.24-17l-1.33-2.94a126.25 126.25 0 0 0 81.39-117.94zM266.23 198a105.38 105.38 0 0 1 67.2 24.14l-82.54 82.54a26.35 26.35 0 0 0-4.5-2.31l-81-30.45A105.93 105.93 0 0 1 266.23 198zm-7.5 232.11a118.93 118.93 0 0 1-118.8-118.8c0-9 1.89-19 3.48-25.79l95.75 36c2.05.82 6 4.55 7 6.54l43.94 96.87c-8.67 2.37-21.18 5.15-31.37 5.15zM302.61 403l-37.77-83.31 83.05-83.06A105.55 105.55 0 0 1 302.61 403z"/></svg>