<svg data-name="Capa 1" xmlns="http://www.w3.org/2000/svg" viewBox="0 0 512 512"><path d="M512 255.5a44 44 0 0 0-44-44h-1.37V50a50 50 0 1 0-100.08 0v35.76h30V50a20 20 0 1 1 40.08 0v105.81H409.8v30h26.85v25.71H44a44 44 0 0 0-44 44v45.84h30.6v36.43a137.9 137.9 0 0 0 73.47 121.82L94.41 482H60.35v30h53.79L132 470.66a137.28 137.28 0 0 0 36.42 4.9h175.19a137.22 137.22 0 0 0 36.42-4.9L397.87 512h53.78v-30h-34l-9.67-22.41a137.9 137.9 0 0 0 73.42-121.82v-36.43H512zm-261.15-14v131.17h-99.32V241.52zM30 271.34V255.5a14 14 0 0 1 14-14h77.55v29.82H30zm421.4 66.43a107.92 107.92 0 0 1-107.79 107.79H168.39A107.91 107.91 0 0 1 60.6 337.77v-36.43h60.93v101.32h159.31V301.34H451.4zm30.6-66.43H280.84v-29.82H468a14 14 0 0 1 14 14z"/></svg>