<svg viewBox="0 0 476 349" xmlns="http://www.w3.org/2000/svg"><path d="m120.6 56c-63.8 30.8-117 56.7-118.3 57.5l-2.3 1.5v59.3c0 42.4.3 59.6 1.1 60.4 1.6 1.6 235.3 114.3 236.9 114.3s235.3-112.7 236.9-114.3 1.6-118.8 0-120.4-235.3-114.3-237-114.3c-.8 0-53.6 25.2-117.3 56zm224.9 8.6c58.9 28.4 107.6 52.1 108.3 52.7 1.1.8 1.1 1.3 0 2.3s-61.4 30.4-62.4 30.4c-.5 0-197-94.8-208.8-100.7-6.2-3.1-8.5-4.8-7.8-5.5 1.2-1.2 61.2-30.6 62.7-30.7.6-.1 49.2 23.1 108 51.5zm-70.1 42.9c67.4 32.5 99.5 48.5 99.3 49.4s-10.1 6.2-22.2 12.1l-22 10.6-25.4-12c-70.9-33.7-191.3-92.2-191.4-93.1 0-.6 10-6 22.4-12.1l22.4-11 8.6 4c4.8 2.3 53.5 25.7 108.3 52.1zm-71.9 24.7c136.4 65.8 125.7 60.9 129.3 59.9a24.22 24.22 0 0 0 5.4-2.5c1.4-.9 15.5-7.9 31.4-15.5s43.4-20.9 61.1-29.4c18.5-9 32.9-15.4 33.8-15.1 1.3.6 1.5 6.4 1.3 48.7l-.3 48.2-109 52.7c-60 29-109.9 52.6-111 52.5-2-.2-2-.9-2-48.2v-48l28-14c26.1-13 28-14.2 28.3-16.8.4-3.5-2.2-6.7-5.3-6.7-1.3 0-14.5 5.9-29.4 13.1l-27.1 13.1-11.8-5.6c-10.2-4.9-12.3-5.5-14.5-4.7-2.9 1.1-4.6 5.4-3 8 .5.9 6.1 4.3 12.4 7.6l11.4 6 .3 46c.1 25.3 0 47-.3 48.3s-1.3 2.2-2.3 2.1-50.7-23.8-110.7-52.7l-109-52.7-.2-49.5c-.1-27.2.1-48.9.4-48.2s.9 1 1.3.7 38.8 17.7 85.1 40.1c74.7 36.1 84.4 40.5 86.5 39.5 3.5-1.6 5.1-5.5 3.3-8.2-.9-1.3-31.1-16.4-80.9-40.4-43.7-21.1-80.8-39-82.4-39.9-2.3-1.3-2.6-2-1.7-2.9 1.2-1.3 72.9-36.4 74.6-36.6.5-.1 48.6 22.9 107 51.1z"/></svg>