<svg data-name="Capa 1" xmlns="http://www.w3.org/2000/svg" viewBox="0 0 512 512"><path d="M512 76.8V25.6A25.63 25.63 0 0 0 486.4 0h-76.8a25.56 25.56 0 0 0-24 17.07h-37.31A25.55 25.55 0 0 0 324.27 0H25.6A25.62 25.62 0 0 0 0 25.6v51.2a25.56 25.56 0 0 0 17.07 24v37.28A25.55 25.55 0 0 0 0 162.13v51.2a25.55 25.55 0 0 0 17.07 24v37.28A25.55 25.55 0 0 0 0 298.67v51.2a25.55 25.55 0 0 0 17.07 24v37.28A25.57 25.57 0 0 0 0 435.2v51.2A25.62 25.62 0 0 0 25.6 512h76.8a25.57 25.57 0 0 0 24-17.07h37.28a25.55 25.55 0 0 0 24 17.07H486.4a25.64 25.64 0 0 0 25.6-25.6v-51.2a25.56 25.56 0 0 0-17.07-24v-37.31a25.55 25.55 0 0 0 17.07-24v-51.2a25.55 25.55 0 0 0-17.07-24v-37.33a25.55 25.55 0 0 0 17.07-24v-51.2a25.57 25.57 0 0 0-17.07-24v-37.33A25.56 25.56 0 0 0 512 76.8zM17.07 25.6a8.53 8.53 0 0 1 8.53-8.53h298.67a8.53 8.53 0 0 1 8.53 8.53v51.2a8.54 8.54 0 0 1-8.53 8.53H25.6a8.53 8.53 0 0 1-8.53-8.53zm0 136.53a8.53 8.53 0 0 1 8.53-8.53h76.8a8.53 8.53 0 0 1 8.53 8.53v51.2a8.55 8.55 0 0 1-8.53 8.54H25.6a8.55 8.55 0 0 1-8.53-8.54zm0 136.54a8.55 8.55 0 0 1 8.53-8.54h298.67a8.55 8.55 0 0 1 8.53 8.54v51.2a8.54 8.54 0 0 1-8.53 8.53H25.6a8.54 8.54 0 0 1-8.53-8.53zm93.86 187.73a8.53 8.53 0 0 1-8.53 8.53H25.6a8.53 8.53 0 0 1-8.53-8.53v-51.2a8.53 8.53 0 0 1 8.53-8.53h76.8a8.53 8.53 0 0 1 8.53 8.53zm51.2-51.2v42.67H128V435.2a25.63 25.63 0 0 0-25.6-25.6H34.13v-34.13h290.14a25.64 25.64 0 0 0 25.6-25.6v-51.2a25.63 25.63 0 0 0-25.6-25.6H34.13v-34.14h68.27a25.62 25.62 0 0 0 25.6-25.6v-51.2a25.63 25.63 0 0 0-25.6-25.6H34.13V102.4h290.14a25.63 25.63 0 0 0 25.6-25.6V34.13H384V76.8a25.63 25.63 0 0 0 25.6 25.6h68.27v34.13H187.73a25.64 25.64 0 0 0-25.6 25.6v51.2a25.62 25.62 0 0 0 25.6 25.6h290.14v34.14H409.6a25.62 25.62 0 0 0-25.6 25.6v51.2a25.64 25.64 0 0 0 25.6 25.6h68.27v34.13H187.73a25.63 25.63 0 0 0-25.6 25.6zm332.8 51.2a8.53 8.53 0 0 1-8.53 8.53H187.73a8.53 8.53 0 0 1-8.53-8.53v-51.2a8.54 8.54 0 0 1 8.53-8.53H486.4a8.53 8.53 0 0 1 8.53 8.53v51.2zm0-136.53a8.53 8.53 0 0 1-8.53 8.53h-76.8a8.54 8.54 0 0 1-8.53-8.53v-51.2a8.55 8.55 0 0 1 8.53-8.54h76.8a8.55 8.55 0 0 1 8.53 8.54zm0-136.54a8.55 8.55 0 0 1-8.53 8.54H187.73a8.55 8.55 0 0 1-8.53-8.54v-51.2a8.54 8.54 0 0 1 8.53-8.53H486.4a8.53 8.53 0 0 1 8.53 8.53v51.2zm-8.53-128h-76.8a8.53 8.53 0 0 1-8.53-8.53V25.6a8.53 8.53 0 0 1 8.53-8.53h76.8a8.53 8.53 0 0 1 8.53 8.53v51.2a8.53 8.53 0 0 1-8.53 8.53z"/></svg>