<svg data-name="Capa 1" xmlns="http://www.w3.org/2000/svg" viewBox="0 0 512 512"><path d="M485.05 48.84h-84.21V15.16a10.11 10.11 0 1 0-20.21 0v33.68H131.37V15.16a10.11 10.11 0 1 0-20.21 0v33.68H27A27 27 0 0 0 0 75.79V480a27 27 0 0 0 27 27h458.1a27 27 0 0 0 26.9-27V75.79a27 27 0 0 0-26.95-26.95zM491.79 480a6.83 6.83 0 0 1-6.74 6.74H27a6.83 6.83 0 0 1-6.79-6.74V166.74h471.58zm0-333.47H20.21V75.79A6.83 6.83 0 0 1 27 69.05h84.21v33.69a10.11 10.11 0 0 0 20.21 0V69.05h249.21v33.69a10.11 10.11 0 0 0 20.21 0V69.05h84.21a6.83 6.83 0 0 1 6.74 6.74v70.74z"/><path d="M256 207.16a117.9 117.9 0 1 0 117.89 117.89A117.89 117.89 0 0 0 256 207.16zm69.07 187a97.68 97.68 0 1 1 28.61-69.07 97.32 97.32 0 0 1-28.61 69.03z"/><path d="M303.5 289.2a10.11 10.11 0 0 0-14.29-.14l-34.48 33.79-50.25-47.1a10.11 10.11 0 1 0-13.82 14.75L248 344.22a10.08 10.08 0 0 0 14-.16l41.4-40.57a10.1 10.1 0 0 0 .1-14.29z"/></svg>