<svg data-name="Слой 1" xmlns="http://www.w3.org/2000/svg" viewBox="0 0 911 815"><path d="M215.9 3.3a59 59 0 0 0-8.5 4.4c-1.6 1.2-13.1 12.4-25.5 25-15.5 15.6-23.3 24.2-24.7 27.4-6.6 13.9-4.3 28.9 6.1 40.7 2.6 2.9 4.4 5.8 4.1 6.4s-37 25.1-81.5 54.2C-4.8 220.6 1 216.1 1 228.5c0 3.6.5 10.9 1.1 16.3A224.58 224.58 0 0 0 126.5 423c29.2 14.4 59.5 22.1 87.5 22.4 12.2.1 13.8-.1 16.4-2 1.7-1.2 24.3-34.8 53.6-79.5 29.1-44.5 51.3-77.4 52.1-77.4s10.2 13 21 29C411 395.6 455.4 452.1 516.9 519c6.9 7.4 53.3 54.4 103.1 104.5 50.2 50.4 94 95.2 98.2 100.5 15.7 19.6 25.6 34.9 37.5 57.5 8.9 16.8 14.3 22.9 25.2 28.3 7.3 3.6 7.7 3.7 19 3.7 11 0 11.9-.2 18.6-3.3 6.3-3 9.8-6.1 37.3-33.5 16.7-16.6 31.7-32.3 33.4-35 8.6-13.3 9-31.7 1.1-45.7-1.6-2.8-49.6-51.7-129.7-132-138.1-138.4-151.9-152.9-192.7-202-25-30.1-72.9-92.9-72.9-95.7 0-1.5 100.5-101.3 102-101.3.8 0 28 26.5 60.5 58.9 32.5 32.6 60.3 59.5 61.8 60 1.7.7 13.2 1.1 29.3 1.1 23.3 0 26.5.2 27.1 1.6.4 1.1-4.7 6.9-17.8 20.1-10.1 10.1-19.1 18.8-19.9 19.2s-11.4-.3-23.5-1.6-23.4-2.2-25.2-1.8c-4 .7-9.6 5.4-11.1 9.2-.6 1.6-2 10.8-3.1 20.7s-2.2 18.1-2.5 18.3-8.8-.4-19-1.5c-20.8-2.3-23.7-2-28.5 2.9-4.2 4.1-5.8 9.7-4.2 14.9s5.4 9.6 9.4 10.9c1.8.6 15.7 2.4 31.1 4.1l27.8 3.1 4.7-2.3c7.2-3.6 8.5-6.9 10.6-27.4 1-9.5 2.2-17.9 2.6-18.6.6-.9 4.4-.8 17.1.5 19.6 2.1 23.1 2.1 26.6.3 1.5-.8 35.4-34.2 75.3-74.3l72.7-72.8 4.1-8.5c5.4-11.3 7.4-19.4 7.4-31s-2-19.7-7.4-31c-4.1-8.4-4.5-8.9-60.8-65.3-39.3-39.5-58.7-58.2-63.5-61.4a80 80 0 0 0-15.5-7.7c-7.9-2.8-9.6-3-21.6-3-11.6 0-13.8.3-21 2.8a96.25 96.25 0 0 0-14 6.3c-4.6 2.7-32.5 30.1-117.7 115.1-70.7 70.6-112.1 111.3-113 111s-11.7-16.3-24.3-35.4c-21.9-33.5-22.9-35.2-23.6-41.1-1.7-13.5-.7-12.3-64.3-76.1-54.3-54.5-58.6-58.5-65.3-61.9a43.72 43.72 0 0 0-28.4-3.3l-6 1.3-7.2-7.1C247 4.6 241 1.7 230 1.3c-7.2-.3-9.4 0-14.1 2zM235 37.5l4.4 4.5-21.9 22c-12.1 12.1-22.4 22-23 22-1.5 0-9.5-8.3-9.5-9.9 0-2.4 41.1-43.1 43.5-43.1 1.2 0 4.1 2 6.5 4.5zm521.3-.7c3.1 1.4 4.7 2.7 4.7 3.9 0 1-17.7 19.5-41.4 43.3-22.8 22.8-42 42.8-42.5 44.3-1.5 4-1.4 10.3.3 13.5 2.2 4.2 66.7 68 69.9 69.2 3.8 1.4 47.7 1.3 51.4-.1 1.5-.5 17.2-15.4 34.8-33s32.8-31.9 33.7-31.9c3.5 0 9 9.5 10.9 18.8a35.38 35.38 0 0 1-3.3 22.6c-1.2 2.5-14.1 16.2-32.6 34.8L811.5 253h-80l-55.2-55.2c-30.4-30.4-55.3-56-55.3-56.8 0-1.3 100.8-103 102.1-103 .3 0 2.9-.9 5.9-2 7.3-2.7 20.3-2.3 27.3.8zm-415.6 70.5c31.5 31.6 55.3 56.2 55.6 57.6a10.86 10.86 0 0 1-.4 5c-1 2.7-56.7 59.1-58.4 59.1-1.3 0-119.5-118.2-119.5-119.5 0-.6 12.7-13.7 28.3-29.3 28.9-28.9 31.4-30.8 36.7-29 1.4.4 27.3 25.7 57.7 56.1zm474-15.1c15.6 15.6 28.3 29 28.3 29.8s-12.7 14.2-28.3 29.8L786.5 180h-27l-22.2-22.2C725 145.5 715 135.1 715 134.5c0-1.3 69.2-70.5 70.5-70.5.5 0 13.7 12.7 29.2 28.2zM255.4 192.9c47.8 47.8 61.6 62.2 61 63.4-.5.8-15.3 23.6-32.9 50.5l-32 49-9.5.7c-43.3 3.4-82.9-10.4-111.5-39-18.7-18.6-30.5-39.8-36.7-65.5-2.4-10.1-4.7-13.6-10.6-16.2-7.8-3.5-16.4-.2-20.3 7.9-2 4.2-2.1 5-1 11.2a183.92 183.92 0 0 0 5.2 18.5c15.8 47.5 50.4 84.4 96.6 103 17.6 7.1 33.2 10.5 55.6 12.1 4.9.4 8.7 1.1 8.7 1.7s-3.3 6.2-7.2 12.5l-7.3 11.4-7-.6c-3.8-.3-12.5-1.7-19.3-3.1-54.7-10.9-101.5-45-129.9-94.5-12.4-21.7-22.6-54.3-23.5-75.3l-.3-7 78-51.2c42.9-28.2 78.9-51.3 80-51.3 1.4-.1 21.2 19.1 63.9 61.8zM432 230.3c39.9 60.8 72.6 105.4 112.1 152.7 41.1 49.4 57.4 66.5 163.6 173 49.1 49.3 89.3 90 89.3 90.5 0 1.7-53.4 54.5-55.2 54.5-.9 0-3.5-2.4-5.9-5.2s-45.1-46.3-94.9-96.3-95.8-96.6-102.1-103.5A1555.88 1555.88 0 0 1 417 346.5c-17.9-25.1-60-88-60-89.7s53.2-54.8 55-54.8c.9 0 9.5 12.2 20 28.3zm410.8 461l21.2 21.3v10.8l-28.7 28.8c-32.1 32.2-32.6 32.5-40.6 29-3.9-1.7-4.8-2.9-9.2-11.3-5.8-11.4-14.4-26.4-19.7-34.1-2.1-3.1-3.8-6.3-3.8-7 0-1.5 57-58.8 58.5-58.8.6 0 10.6 9.6 22.3 21.3z"/><path d="M565.4 463.9c-3.3 1.4-8.3 7.8-8.9 11.5a16 16 0 0 0 8.6 17.1c9.1 4.8 21.2-1.8 22.6-12.3.7-4.9-2.3-11.7-6.4-14.7-3-2.1-12.4-3.1-15.9-1.6zm40.6 42a15.07 15.07 0 0 0-8 10.5c-1.8 7.9-1 9 30.3 40.5 16.1 16.1 30.6 29.9 32.4 30.7 10.3 4.5 21.5-3.1 21.5-14.5 0-2.6-.5-5.9-1.2-7.2-1.9-3.7-53.9-55.8-58.9-59-5.3-3.4-11-3.8-16.1-1zM346.6 371.5c-3.2 1.1-33.8 31.2-152.4 149.7-81.6 81.6-149 149.5-149.8 151-1.8 3.5-1.8 10.1 0 13.6.8 1.5 29.5 30.7 63.8 64.9 42.8 42.8 63.2 62.4 65.1 62.9 7 1.7 15.2-1.8 18.3-7.8 1-1.9 2.4-10.3 3.6-21.7 1.1-10.2 2.3-18.9 2.7-19.4s9 .2 19.2 1.4c21.1 2.4 23.8 2 28.8-3.6 3.7-4.3 3.7-3.9 6.1-25.4 1-9.5 2.2-17.6 2.5-17.9s7.4.2 15.8 1.1c20.7 2.3 24.6 2.2 28.7-.6 6.5-4.4 7.1-6 9.2-25.9 1.3-11.5 2.5-18.7 3.3-19.3.9-.8 6.9-.5 20 .9l18.8 2 4.5-2.5c6.7-3.8 7.8-6.7 10.2-27.4 1.1-9.9 2.4-18.3 2.9-18.8s8.9.1 18.9 1.2c18.6 2 21.8 1.9 26.8-1.4 4.5-2.9 6.1-8 8-26.3 1-9.4 2.1-17.7 2.5-18.4.6-.9 5.4-.7 19.6.7 10.4 1 20 1.5 21.4 1.2 3.6-.9 7.6-4.3 9.5-7.9 1.5-2.9 7.3-49.1 7.4-58.3.1-15.9-21.2-21.6-29.2-7.8-1.4 2.2-2.5 8.3-3.9 21-1.1 9.8-2.6 18.3-3.2 18.9-.9.8-5.9.6-19.3-.9-9.9-1.1-19.3-1.7-20.7-1.3-3.5.8-9.2 5.9-10.5 9.3-.6 1.6-2 10.8-3.1 20.7s-2.2 18.1-2.5 18.3-8.8-.4-18.9-1.6c-19-2.1-21.9-2-27 1.4-4.6 3-6.3 8.6-8.2 27.3-1.4 13.2-2.2 17.5-3.3 18-.8.3-8.3-.2-16.6-1.1-18.8-2.1-21.9-2.1-26.3 0-6.6 3.1-7.9 6.7-10.3 27.3-1.1 10.1-2.4 18.8-2.8 19.2s-9.3-.2-19.7-1.4c-18.4-2-19.2-2-22.8-.3-7.7 3.6-8.8 6.4-11.2 27.5-1.2 10.5-2.4 19.3-2.8 19.6s-7.5-.1-15.9-1c-18.8-2-24.1-2-27.8-.1-6 3.1-8.2 8.1-9.5 20.8-.5 4.7-1.1 7-2.2 7.4s-14.1-12-41.9-39.8C100.2 698.7 82 680.1 82 679.5s62.8-63.8 139.6-140.5 140.9-141.3 142.5-143.4c2.3-3.1 2.9-4.9 2.9-9.1 0-6.6-2.9-11.2-9-14.3-5.1-2.5-6.1-2.6-11.4-.7z"/></svg>