<svg data-name="Capa 1" xmlns="http://www.w3.org/2000/svg" viewBox="0 0 512 512"><path d="M330.93 200.82a10.63 10.63 0 0 0-15 1.55l-64.89 79.77-42.26-35.26a10.65 10.65 0 0 0-13.65 16.35l50.55 42.16a10.65 10.65 0 0 0 15.09-1.47l71.68-88.13a10.64 10.64 0 0 0-1.52-14.97z"/><path d="M256.78 68.65c-103.91 0-188.12 84.22-188.12 188.12s84.21 188.12 188.12 188.12S444.9 360.66 444.9 256.77 360.7 68.65 256.78 68.65zm0 354.94C164.8 423.59 90 348.75 90 256.77S164.8 89.94 256.78 89.94 423.6 164.78 423.6 256.77s-74.83 166.82-166.82 166.82z"/><path d="M510.74 328.12l-12-48.52c-1.65-6.54-2.63-16.39-2.61-26 0-9 .85-18 2.3-24.18l11.4-48.66a44.46 44.46 0 0 0 1.12-10 53.85 53.85 0 0 0-6.37-24.88 48.73 48.73 0 0 0-17.45-19L444.33 101c-5.59-3.35-12.94-9.32-19.58-15.9S412 71.31 408.6 65.76l-26.33-42.48A48.59 48.59 0 0 0 363.33 6.2 53.69 53.69 0 0 0 338.7 0a44.15 44.15 0 0 0-10.57 1.26l-48.51 12c-6.56 1.63-16.41 2.62-26.06 2.6-9 0-18-.84-24.16-2.29l-48.66-11.4a44.26 44.26 0 0 0-10-1.13 53.51 53.51 0 0 0-24.87 6.38 48.61 48.61 0 0 0-19 17.45l-25.81 42.8c-3.36 5.6-9.33 13-15.91 19.59S71.33 100 65.78 103.4l-42.47 26.34a48.35 48.35 0 0 0-17.1 18.94A53.77 53.77 0 0 0 0 173.3a44.74 44.74 0 0 0 1.26 10.58l12 48.52c1.63 6.54 2.61 16.39 2.59 26 0 9-.83 18.06-2.28 24.19L2.18 331.28v-.06a43.92 43.92 0 0 0-1.15 10 53.58 53.58 0 0 0 6.38 24.88 48.75 48.75 0 0 0 17.45 19L67.69 411c5.58 3.36 12.94 9.33 19.58 15.91s12.73 13.77 16.13 19.33l26.35 42.48a48.54 48.54 0 0 0 18.92 17.08 53.7 53.7 0 0 0 24.64 6.2 43.76 43.76 0 0 0 10.57-1.26l48.52-12c6.53-1.64 16.39-2.63 26-2.61 9 0 18.05.84 24.18 2.3l48.66 11.41a44 44 0 0 0 10 1.12 53.85 53.85 0 0 0 24.88-6.37 48.78 48.78 0 0 0 19-17.46L411 444.34c3.36-5.6 9.33-13 15.91-19.59s13.82-12.72 19.38-16.14l42.47-26.34a48.36 48.36 0 0 0 17.08-18.94A53.69 53.69 0 0 0 512 338.7a86.14 86.14 0 0 0-1.26-10.58zm-23.83 25.35a27.5 27.5 0 0 1-9.42 10.69L435 390.5c-7.73 4.81-15.81 11.69-23.32 19.28s-14.28 15.77-19 23.55l-25.78 42.79a27.66 27.66 0 0 1-10.74 9.64 32.43 32.43 0 0 1-14.9 3.89 22.49 22.49 0 0 1-5.14-.56l-48.65-11.41a133.5 133.5 0 0 0-29.05-2.85c-11 0-22 1-31.17 3.23l-48.52 12a22.32 22.32 0 0 1-5.45.64 32.6 32.6 0 0 1-14.78-3.79 27.47 27.47 0 0 1-10.68-9.42L121.47 435c-4.8-7.71-11.68-15.81-19.27-23.31s-15.77-14.28-23.55-19l-42.8-25.82a27.34 27.34 0 0 1-9.64-10.73 32.29 32.29 0 0 1-3.9-14.89 21.09 21.09 0 0 1 .57-5.09v-.05l11.41-48.66c2-8.56 2.83-18.73 2.85-29 0-11-1-22-3.22-31.15l-12-48.53a22.48 22.48 0 0 1-.62-5.46 32.58 32.58 0 0 1 3.78-14.77 27.36 27.36 0 0 1 9.43-10.69L77 121.47c7.72-4.8 15.81-11.69 23.32-19.28s14.27-15.77 19-23.54l25.82-42.8a27.56 27.56 0 0 1 10.73-9.64 32.4 32.4 0 0 1 14.9-3.89 22.53 22.53 0 0 1 5.13.56l48.66 11.41a132.66 132.66 0 0 0 29 2.85c11 0 22-1 31.17-3.23l48.52-12a22.89 22.89 0 0 1 5.45-.63 32.59 32.59 0 0 1 14.77 3.79 27.38 27.38 0 0 1 10.69 9.43L390.5 77c4.81 7.72 11.68 15.8 19.27 23.32s15.78 14.27 23.56 19l42.8 25.81a27.57 27.57 0 0 1 9.63 10.74 32.4 32.4 0 0 1 3.89 14.89 22.3 22.3 0 0 1-.56 5.16l-11.41 48.65a133.35 133.35 0 0 0-2.86 29.05c0 11 1 22 3.24 31.17l12 48.5a22.24 22.24 0 0 1 .63 5.46 32.62 32.62 0 0 1-3.78 14.72z"/></svg>