<svg data-name="Слой 1" xmlns="http://www.w3.org/2000/svg" viewBox="0 0 436 436"><path d="M367.88 297.69H68.12a6.81 6.81 0 0 1-6.44-4.6l-44.81-130.7a6.81 6.81 0 0 1 4.24-8.65 6.5 6.5 0 0 1 3.28-.28 6.79 6.79 0 0 1 5.83 4c5.54 12.58 25.24 53.19 48.23 53.19h.87c13.86-.62 35.55-16.62 60.12-89.31a6.8 6.8 0 0 1 12.9 0c8.39 24.78 36.51 88.93 65.71 88.93h.23c13.84-.16 35.13-15.7 57.92-88.77a6.81 6.81 0 0 1 6.51-4.79h.06a6.83 6.83 0 0 1 6.48 4.92c7 24 31.67 86.82 62 89.45 17.71 1.45 37.34-18.58 56.72-58.16a6.82 6.82 0 0 1 12.57 5.2l-46.19 135a6.81 6.81 0 0 1-6.47 4.57zM73 284.07h290l26.69-78c-12.9 13.65-26 19.74-39.65 18.59-33.57-2.92-56.6-51.28-67.3-79.71-18.92 52.8-40 78.67-64.3 78.95h-.39c-33.92 0-60.11-52-72-80.68-20.24 53.41-42 80-66.16 81-12.41.48-23.21-5.71-32.52-14.88z"/><path d="M367.88 352.19H68.12a6.81 6.81 0 0 1-6.81-6.81v-54.5a6.82 6.82 0 0 1 13.63 0v47.69h286.12v-47.69a6.82 6.82 0 0 1 13.63 0v54.5a6.81 6.81 0 0 1-6.81 6.81zM148.7 130.36a23.32 23.32 0 1 1 23.3-23.31 23.34 23.34 0 0 1-23.3 23.31zm0-33a9.69 9.69 0 1 0 9.69 9.69 9.7 9.7 0 0 0-9.69-9.69zm131.99 33A23.32 23.32 0 1 1 304 107.05a23.34 23.34 0 0 1-23.31 23.31zm0-33a9.69 9.69 0 1 0 9.69 9.69 9.7 9.7 0 0 0-9.69-9.69zm132 66A23.32 23.32 0 1 1 436 140a23.34 23.34 0 0 1-23.31 23.36zm0-33a9.69 9.69 0 1 0 9.69 9.68 9.69 9.69 0 0 0-9.69-9.68zm-389.38 33A23.32 23.32 0 1 1 46.63 140a23.34 23.34 0 0 1-23.32 23.36zm0-33A9.69 9.69 0 1 0 33 140a9.7 9.7 0 0 0-9.69-9.64z"/></svg>