<svg data-name="Capa 1" xmlns="http://www.w3.org/2000/svg" viewBox="0 0 512 512"><path d="M407.37 113.82l-20.46-27.28a10.23 10.23 0 1 0-16.36 12.28L391 126.09a10.23 10.23 0 0 0 16.36-12.27z"/><path d="M505.54 168.44l-88.4-109.8a50.65 50.65 0 0 0-35.71-17.09H129.88a46.75 46.75 0 0 0-19.6 4.92A46.54 46.54 0 0 0 94.21 58.7L6.42 168.43A30.16 30.16 0 0 0 0 187.29a30.47 30.47 0 0 0 7.58 20.35L237 461.86a25.32 25.32 0 0 0 38 0l229.44-254.22a30.34 30.34 0 0 0 7.56-20.31 30 30 0 0 0-6.46-18.89zM290 62l46.36 115.9H174.71L213 62zm-179.82 9.48a30.25 30.25 0 0 1 19.7-9.48h61.55l-38.27 115.9H25zM26.75 198.36h126.44l74.05 222.15zM256 442.12l-81.25-243.76h162.52zm28.78-21.61l74-222.15h126.48zm73.6-242.61L312 62h69.42a30.56 30.56 0 0 1 19.77 9.47L486.9 177.9z"/></svg>