<svg data-name="Capa 1" xmlns="http://www.w3.org/2000/svg" viewBox="0 0 325.02 325.02"><path d="M313.25 11.76C305.45 4 294.49 0 280.68 0c-37.56 0-91.83 29.32-141.63 76.5a6 6 0 0 0-1.56 2.44L123.37 121l-18.86-3a6 6 0 0 0-5.65 2.19C56 174.08 55.36 245.77 55.74 260.78l-54 54a6 6 0 1 0 8.48 8.49L64.47 269a321.14 321.14 0 0 0 60.47-11c32.64-9.05 79.15-27.44 115.33-63.62 6.46-6.45 12.78-13.18 18.77-20a6 6 0 0 0 1.11-6.11l-6.79-17.76 40-22.71a6 6 0 0 0 2.13-2C327.16 75 333.8 32.31 313.25 11.76zM286.1 118.2L243 142.69a6 6 0 0 0-2.64 7.36l7.32 19.17c-5.1 5.7-10.42 11.32-15.84 16.74-34.26 34.25-78.6 51.78-109.76 60.46a332 332 0 0 1-44 9.08l111.58-111.67a6 6 0 1 0-8.48-8.48L67.91 248.61c1-24.79 7.1-77.16 38.21-118.2l20.38 3.26a6 6 0 0 0 6.63-4l15.26-45.47C195.05 40.3 246.86 12 280.68 12c10.51 0 18.62 2.77 24.08 8.23 15.69 15.7 8.35 54.06-18.66 97.97z"/></svg>