<svg data-name="Слой 1" xmlns="http://www.w3.org/2000/svg" viewBox="0 0 512 455"><path d="M236.8 2a20.89 20.89 0 0 0-9.7 12.5C226.4 17 226 30 226 48.6c0 39.1-1.8 49.1-12.4 69-12.1 22.8-33.6 41.3-57.4 49.5-5 1.7-5.3 1.7-5.9.1-3.6-10.5-10.1-18.2-19-22.8l-5.8-2.9h-100l-5 2.5c-6.4 3.1-14.4 11.1-17.5 17.5l-2.5 5-.3 48.1-.3 48.1 2.6 2.5a10.51 10.51 0 0 0 17.9-5.3c.3-1.8.6-22.1.6-45.2 0-40.6.1-42.1 2.1-45.3a19.1 19.1 0 0 1 5.3-5.3c3.2-2 4.7-2.1 47.3-2.1 44 0 44 0 47.3 2.3a19.55 19.55 0 0 1 5.4 5.7c2.1 3.5 2.1 4.5 2.4 125.8.1 80.8-.1 123.7-.8 126.2a17.48 17.48 0 0 1-8.3 10.8c-2.9 1.5-7.3 1.7-46.2 1.7h-43l-3.7-2.3a21.72 21.72 0 0 1-5.7-5.6c-2-3.2-2.1-4.7-2.1-45.3 0-23.1-.3-43.4-.6-45.2-1-5.1-4.9-8.1-10.4-8.1-3.8 0-5.3.5-7.4 2.7l-2.7 2.6.3 48.1.3 48.1 2.5 5c3.1 6.4 11.1 14.4 17.5 17.5l5 2.5h100l5.8-3c10.4-5.2 19.7-18.2 19.7-27.4a7 7 0 0 1 .6-3.3c.3-.3 5.6 3 11.7 7.4 19 13.6 37.4 21.7 57.7 25.2 8.5 1.5 19.8 1.7 111 1.4l101.5-.3 6.8-3.2c23.5-11.2 32.8-38.8 20.9-62.4l-3.8-7.6 4.3-2.3c10.1-5.4 19.3-19.2 21.5-32.4a46.18 46.18 0 0 0-4.1-26.6l-2.7-5.6 5.7-1.7c7.3-2.2 17.2-9.5 22.1-16.6 6-8.6 8.1-16.4 7.6-28.4-.3-8.9-.8-11.1-3.5-16.9-5.1-10.9-14.2-19.5-24.8-23.3a38.65 38.65 0 0 1-5.8-2.5c-.4-.4.4-3.2 1.8-6.3 12.2-26.7-4.1-58.5-32.7-63.7-3.7-.7-24.5-1-58-.8-50.7.3-52.5.4-57.3 2.4-2.7 1.2-5.8 2.5-6.7 2.9-1.5.6-1.7-2.9-2-48.2-.4-47.2-.5-49.1-2.7-56.3-6.4-21.3-20.5-38.2-39.6-47.5C269.1 2 260.7 0 249.4 0c-6.8.1-9.8.5-12.6 2zm24.3 20.6c14.7 4.4 28.5 15.7 34.7 28.6 6.2 12.7 6.3 14.3 5.9 83.7l-.3 62.6-3.2 9.9c-1.8 5.5-4.3 12.2-5.5 15-7.5 16.1-25.5 28.5-43.9 30.2-8.3.7-11.6 2.1-13.3 5.5-3 5.7-.9 12.7 4.5 14.9 4.2 1.7 16.4.7 25.5-2.1a78.54 78.54 0 0 0 29.5-16.6c6.8-6.3 17-20.2 17-23.2 0-1 .7-.8 2.4.8l2.5 2.3-4.5 5.4c-10.4 12.8-13.4 25.6-9.8 41.4 1.6 7.1 6.8 16.4 11.7 20.9l2.6 2.3-4.6 5.6c-9.1 11.1-12.6 23.2-10.6 36.7 1.3 9.5 5.7 18.5 11.7 24.4l4.5 4.4-4.1 4.6a52.84 52.84 0 0 0-7.1 11.1c-5.5 11.7-4.8 30.2 1.4 40.9l2 3.4-39.3-.6c-43.3-.6-48.1-1.1-65.9-7.6-11-4.1-18.7-8.6-37.5-22.3L152 393.6l.2-101.4.3-101.4 8.8-2.9c43.4-14.1 76.3-52.5 84.1-97.8 1.2-7.3 1.6-16.4 1.6-39.3V21h4.3a41.54 41.54 0 0 1 9.8 1.6zm187.5 155.1c9.1 4.9 15.2 15.8 13.8 25-1 6.5-6.1 14.2-11.8 17.8l-4.9 3-51.9.3c-51.2.2-51.9.2-56.8-1.9-8.4-3.6-15.1-13.6-15-22.3.1-6.8 4.9-15.6 10.6-19.5 7.3-5.1 7.4-5.1 61.4-4.8 49.7.2 50.6.2 54.6 2.4zm25 68.8c22.2 6.6 23.5 37 1.9 46.1-2.9 1.2-14 1.4-68.8 1.4h-65.3l-5.5-2.8c-9.2-4.7-14.8-14.5-13.5-24a26.21 26.21 0 0 1 19.1-21.3c1.7-.4 30.9-.7 65.1-.8 52-.1 62.8.1 67 1.4zm-25.4 71.3c18.6 9.2 19.1 34.2.9 43.5l-5.5 2.7h-51.2c-56.2 0-54.8.1-61.9-6.2-5.6-4.8-7.9-10.2-7.9-17.8 0-10.8 6.3-19.5 16.6-23.1 4.9-1.8 8.8-1.9 54.8-1.6 49.5.2 49.5.2 54.2 2.5zm-17 70c12.6 6.2 17.6 20.7 11.4 33-2.7 5.4-6.7 9-13.2 11.9-3.5 1.6-8 1.8-40.2 2.1-21.7.2-39-.1-42.9-.7-8.6-1.3-14.8-5.2-18.8-11.5-2.7-4.4-3-5.8-3-12.6s.3-8.2 3-12.6c3.4-5.4 10.3-10.3 16.3-11.5 2-.4 21.5-.7 43.2-.6 39.1.2 39.5.2 44.2 2.5z"/><path d="M2.6 290.6C.5 292.7 0 294.2 0 298c0 6.6 3.4 10 10 10s10-3.4 10-10-3.4-10-10-10c-3.8 0-5.3.5-7.4 2.6zm58.9 49.2a34.48 34.48 0 0 0-15.9 16.1c-3 6.5-3 19.7 0 26.2a34.48 34.48 0 0 0 15.9 16.1c4.9 2.3 7.3 2.8 13.5 2.8a43.13 43.13 0 0 0 12.4-1.7c6.6-2.4 13.9-9.1 17.3-16.1 2.4-4.9 2.8-6.9 2.8-14.2s-.4-9.3-2.8-14.2c-3.4-7-10.7-13.7-17.3-16.1A43.13 43.13 0 0 0 75 337c-6.2 0-8.6.5-13.5 2.8zM83 360.9c5.2 5.1 5.2 11.1 0 16.2-2.3 2.4-3.7 2.9-7.5 2.9s-5.2-.5-7.5-2.9c-3.3-3.3-4.5-6.9-3.6-10.7a15.25 15.25 0 0 1 3.6-5.5c2.3-2.4 3.7-2.9 7.5-2.9s5.2.5 7.5 2.9z"/></svg>