<svg data-name="Слой 1" xmlns="http://www.w3.org/2000/svg" viewBox="0 0 480 496"><path d="M213.4 1.1c-8.2 2.4-18.1 12.4-20.4 20.7a62.12 62.12 0 0 0-1 11.4V41h17v-6.8c0-7.8 2-12 7.2-15.2 3.2-1.9 5.2-2 57.6-2H328v168h17V17h107.7l3.3 2.3a19.55 19.55 0 0 1 5.4 5.7c2.1 3.5 2.1 3.8 2.4 202.5.2 109.4 0 201.3-.3 204.2-.7 6.2-3.7 10.9-8.5 13.7-3.3 2-5.3 2.1-41.2 2.4l-37.8.3V465h19l7.4 14.9c4.1 8.1 8.2 15.1 9.1 15.5 2.7 1 31.5.7 33.5-.4 2.9-1.6 4-6.6 4-19v-11.7l4.9-.6c9.2-1.1 18.4-7.8 23.3-16.9l2.3-4.3v-421l-2.3-4.3a38.29 38.29 0 0 0-14.4-14.4L458.5.5l-121-.2c-71.1-.1-122.3.2-124.1.8zM432 472.5v7.5h-10.6l-3.7-7.5-3.7-7.5h18z"/><path d="M128 48v8H94c-32.3 0-34.1.1-35.9 1.9-2.6 2.6-2.5 1.8-6.6 52.1-3.8 46.6-4 52.1-2.5 55 1.9 3.6 6.2 4 43.1 4H128v15h17v-15h35.4c36.4 0 40.7-.4 42.6-4 1.5-2.9 1.3-8.4-2.5-55-4.1-50.3-4-49.5-6.6-52.1-1.8-1.8-3.6-1.9-35.4-1.9H145V40h-17zm72.4 29.2c.3 2.4 1.7 18.5 3.1 35.8s2.7 33.2 3 35.2l.5 3.8H65l.5-3.8c.3-2 1.6-17.9 3-35.2s2.8-33.4 3.1-35.8l.5-4.2h127.8zm-131 123.9c-8.2 2.4-18.1 12.4-20.4 20.7-.5 2-1 14.2-1 26.9V272h17v-22.3c0-20.4.2-22.5 2-25.5a18.4 18.4 0 0 1 5.2-5.2c3.2-2 5.3-2 135.9-2h132.6l3.3 2.3c6.9 4.6 7.5 6.7 7.8 30.9l.4 21.8h15.9l-.3-25.3c-.3-24-.4-25.4-2.6-29.5a38.29 38.29 0 0 0-14.4-14.4l-4.3-2.3-137-.2c-80.7-.1-138.3.2-140.1.8z"/><path d="M160 256v8h16v-16h-16zm80 0v8h16v-16h-16zM49 288.1a55.65 55.65 0 0 0-47 39.7c-2.9 9.6-2.5 26.5.8 35.7C9.1 380.7 25 394.9 42.7 399l5.2 1.2.3 21.1c.3 19.9.4 21.5 2.6 25.5 4.9 9.2 13.8 15.6 23.4 17l5.3.7.5 14.3c.4 12.7.7 14.5 2.4 15.8 1.5 1.1 5.7 1.4 17.2 1.4 8.4 0 16-.3 16.9-.6s5-7.4 9.1-15.5L133 465h150l7.4 14.9c4.1 8.1 8.2 15.1 9.1 15.5 2.7 1 31.5.7 33.5-.4 2.9-1.6 4-6.6 4-19v-11.7l4.9-.6c6.3-.7 12.1-3.7 17.1-8.7 8.1-8.1 10-15.7 10-39.7v-15.2l4.3-1.1c21-5.3 37.1-21.6 41.7-42.1 1.8-8.2.9-24.9-1.8-32.4a58.07 58.07 0 0 0-28.7-31.4c-8.3-3.9-14.5-5.2-24.7-5.2-15.7 0-28.1 5.2-39.3 16.5-13.4 13.5-16.5 22.7-16.5 48.9 0 16.4-.1 17.9-1.7 17.3-3.5-1.4-31.3-6.6-43.8-8.3-16.8-2.2-79.9-2.5-97-.5-12.4 1.5-35.3 5.6-43.2 7.6l-5.3 1.4v-12.1c0-24.2-2.5-35.1-10.7-47.1-11.7-17.1-31.6-25.9-53.3-23.5zm23.3 20.2c7.3 3.3 16 12 19.3 19 3.1 6.9 4.3 16.5 4.4 34.3v14.1l-8.7 3.7c-13 5.4-12.4 4.5-8.3 12.2 1.9 3.7 4 6.8 4.6 7.1s4.9-1.2 9.5-3.1c16.8-6.9 39.7-12.5 66.9-16.3 18-2.6 78-2.6 96 0 27.2 3.8 50.1 9.4 66.8 16.3a73.3 73.3 0 0 0 9.1 3.4c1 0 8.1-12.1 8.1-13.7 0-.9-7.4-4.6-15.3-7.7l-3.8-1.5.3-20.8.3-20.8 3.2-6.8a43 43 0 0 1 19-19.4c5.3-2.5 6.8-2.8 16.3-2.8 9.3 0 11.1.3 16.3 2.7 7.4 3.5 16 12.1 19.5 19.5 2.4 5.2 2.7 7 2.7 16.3s-.3 11.1-2.7 16.3c-3.4 7.2-12.1 16-19.1 19.2a52.26 52.26 0 0 1-12.6 3.5c-8.9 1.2-11 2.3-11.7 5.8-.2 1.5-.6 12.6-.7 24.7-.2 20.2-.4 22.3-2.3 25.5-2.8 4.8-7.5 7.8-13.7 8.5-2.9.3-62.3.5-132.2.3-126-.3-127-.3-130.5-2.4a19.55 19.55 0 0 1-5.7-5.4c-2.2-3.2-2.3-4.1-2.3-25.5 0-23.2-.6-27.7-4.2-29.6a41 41 0 0 0-9.1-2 39.06 39.06 0 0 1-31-21.8c-3-6.1-3.2-7.2-3.2-17.1 0-9.4.3-11.1 2.7-16 5.1-10.3 14-18.3 24.1-21.6 7-2.3 21-1.4 28 1.9zm38 164.2l-3.7 7.5H97v-15h17zm209.7 0v7.5h-10.6l-3.7-7.5-3.7-7.5h18z"/><path d="M45.5 321.9c-8.7 4-13.5 12-13.5 22.3.1 14.2 9.7 23.8 24 23.8s24-9.6 24-24c0-10.4-5.3-18.7-14.2-22.4-5.2-2.2-15.3-2-20.3.3zM61 339c4.3 4.3 1.1 12-5 12a7 7 0 0 1 0-14 8 8 0 0 1 5 2zm288.5-17.1c-8.7 4-13.5 12-13.5 22.3.1 14.2 9.7 23.8 24 23.8s24-9.6 24-24c0-10.4-5.3-18.7-14.2-22.4-5.2-2.2-15.3-2-20.3.3zM365 339a7.25 7.25 0 1 1-5-2 8 8 0 0 1 5 2zm-245-43v8h16v-16h-16zm80 0v8h16v-16h-16zm80 0v8h16v-16h-16zm-120 40v8h16v-16h-16zm80 0v8h16v-16h-16z"/></svg>