<svg data-name="Слой 1" xmlns="http://www.w3.org/2000/svg" viewBox="0 0 512 512"><path d="M493.77 264.14a7 7 0 0 0-7-7h-21.12v-20.58a192.19 192.19 0 0 0-70.48-149.13V42.6a7 7 0 0 0-7-7h-50.44a7 7 0 0 0-7 7v9.76A191.82 191.82 0 0 0 288.22 44V25.23a7 7 0 0 0-7-7h-50.44a7 7 0 0 0-7 7V44a191.82 191.82 0 0 0-42.51 8.33V42.6a7 7 0 0 0-7-7h-50.44a7 7 0 0 0-7 7v44.83a192.19 192.19 0 0 0-70.48 149.13v20.58H25.23a7 7 0 0 0-7 7v37.36c0 3.42 0 11.06 30.35 20.24a178.07 178.07 0 0 0 144.36 147v.87a24.17 24.17 0 0 0 24.15 24.14h77.82a24.17 24.17 0 0 0 24.15-24.14v-.87a178.07 178.07 0 0 0 144.36-147c30.33-9.2 30.35-16.8 30.35-20.24v-37.36zM344.73 49.6h36.44v149.15a11.06 11.06 0 0 1-11.05 11.05h-14.34a11.05 11.05 0 0 1-11-11.05zm-107-17.37h36.44v166.52a11.05 11.05 0 0 1-11.05 11.05h-14.29a11.05 11.05 0 0 1-11.05-11.05zM130.83 49.6h36.44v149.15a11.05 11.05 0 0 1-11.05 11.05h-14.34a11.06 11.06 0 0 1-11-11.05zm-70.48 187a178.15 178.15 0 0 1 56.48-130.49v92.68a25.08 25.08 0 0 0 25 25.05h14.34a25.07 25.07 0 0 0 25.05-25.05V67.09a178.08 178.08 0 0 1 42.51-9v140.66a25.07 25.07 0 0 0 25.05 25.05h14.34a25.07 25.07 0 0 0 25.05-25.05V58.07a178.08 178.08 0 0 1 42.51 9v131.68a25.07 25.07 0 0 0 25 25.05h14.34a25.08 25.08 0 0 0 25.05-25.05v-92.68a178.15 178.15 0 0 1 56.48 130.49v20.58H60.35zm244.71 233.03a10.16 10.16 0 0 1-10.15 10.14h-77.82a10.16 10.16 0 0 1-10.15-10.14V460h98.12zm14-15.11V453a7 7 0 0 0-7-7H199.94a7 7 0 0 0-7 7v1.51A164.08 164.08 0 0 1 63.51 325.76c7.91 1.9 17.15 3.86 28.06 5.84A940.85 940.85 0 0 0 256 345.29a940.85 940.85 0 0 0 164.43-13.69c10.91-2 20.15-3.94 28.06-5.84a164.08 164.08 0 0 1-129.43 128.76zm160.71-156a6.92 6.92 0 0 0-.25 1.63c-3.08 2.53-11.1 5.73-23.25 9.12a6.86 6.86 0 0 0-1.72.47c-37.06 10.06-110 21.51-198.55 21.51s-161.46-11.4-198.52-21.47a7.08 7.08 0 0 0-1.75-.47c-12.23-3.41-20.27-6.63-23.31-9.17a7 7 0 0 0-.19-1.2v-27.8h447.54z"/></svg>