<svg data-name="Слой 1" xmlns="http://www.w3.org/2000/svg" viewBox="0 0 318 510"><path d="M2.9 2.9C.9 4.9 0 6.8 0 9s.9 4.1 2.9 6.1c2.9 2.9 3 2.9 15 2.9H30v29.9c0 33.8 1.2 46.2 5.9 63.3C44 140 57.5 165 91.5 214c8.9 12.9 18.8 27.4 22 32.2l5.8 8.8-5.8 8.7c-3.2 4.9-13.1 19.4-22 32.3-34 49-47.5 74-55.6 102.8-4.7 17.1-5.9 29.5-5.9 63.3V492H17.9c-12 0-12.1 0-15 2.9-3.9 4-3.9 8.2 0 12.2l2.9 2.9h306.4l2.9-2.9c3.6-3.7 3.8-7.9.5-11.8-2.4-2.7-2.8-2.8-14.8-3.3l-12.3-.5-.6-34.5c-.6-35.5-1.1-40.7-5.5-57-7.7-28.6-21.7-54.6-55.9-104-8.9-12.9-18.8-27.4-22-32.3l-5.8-8.7 5.8-8.8c3.2-4.8 13.1-19.3 22-32.2 34.2-49.4 48.2-75.4 55.9-104 4.4-16.3 4.9-21.5 5.5-57l.6-34.5 12.3-.5c12-.5 12.4-.6 14.8-3.3 3.3-3.9 3.1-8.1-.5-11.8L312.2 0H5.8zm266.8 49.3c-.5 37.7-1.2 43.8-7.8 62.3-9.5 27-19.8 45-53.3 93.5-22.5 32.5-29.6 43.7-29.6 47s7.1 14.5 29.6 47c33.5 48.5 43.8 66.5 53.3 93.5 6.6 18.5 7.3 24.6 7.8 62.2l.5 34.3H47.8l.5-34.3c.5-37.6 1.2-43.7 7.8-62.2 9.5-27 19.8-45 53.3-93.5 22.5-32.5 29.6-43.7 29.6-47s-7.1-14.5-29.6-47c-33.5-48.5-43.8-66.5-53.3-93.5-6.6-18.5-7.3-24.6-7.8-62.3L47.8 18h222.4z"/><path d="M92.8 63.1l-3.1 3 .6 8.7c2 28.4 16.4 58 53.4 109.8 14.6 20.6 16.1 20.5 31.7-1.5 31.7-44.6 46.7-73.7 51.1-98.9 2.4-13.4 2.1-17.8-1.4-21.3l-2.9-2.9H95.8zm115.8 19.1c-2 12.2-11.3 33.8-23.1 53.3-7.9 12.9-25.4 38.5-26.5 38.5s-13.8-18.4-23.1-33c-13.8-21.7-24.3-45.1-26.5-59l-.7-4h100.6zm-53.4 229c-2.4 1.2-17.6 22.1-31.8 43.8-21 32.2-33.4 63.4-33.4 84.2 0 4.1.5 5.4 2.9 7.9l2.9 2.9h126.4l3-3.1 3.1-3-.6-8.7c-2-28.4-16.4-58-53.3-109.8-10.7-14.9-13.4-16.9-19.2-14.2zm12.1 35.5c23.6 33.8 38.3 62.7 41.3 81.3l.7 4H108.7l.7-4.3c2-12.1 11.3-33.7 23.1-53.2 7.9-12.9 25.4-38.5 26.5-38.5.4 0 4.1 4.8 8.3 10.7z"/></svg>