<svg data-name="Capa 1" xmlns="http://www.w3.org/2000/svg" viewBox="0 0 512 512"><path d="M446.35 259.07a10 10 0 0 0 13.24-.77L509 209.12a10 10 0 0 0-.9-15l-69.47-54.24a10 10 0 0 0-12.3 15.76l60.53 47.26-35.11 34.94L262.19 88.55a10 10 0 0 0-12.38 0L60.14 238l-35-35L256 22.69l108.47 84.68a10 10 0 0 0 12.31-15.77L262.15 2.12a10 10 0 0 0-12.3 0l-246 192A10 10 0 0 0 3 209.1l49.33 49.29a10 10 0 0 0 13.25.78l.46-.36V452H43a10 10 0 0 0-10 10v40a10 10 0 0 0 10 10h426a10 10 0 0 0 10-10v-40a10 10 0 0 0-10-10h-23V258.79zM256 109.13L335.82 172H176.2zM86 248h59a10 10 0 0 0 0-20h-39.89l45.7-36h210.4l45.7 36H224a10 10 0 0 0 0 20h202v36h-32v-8a10 10 0 0 0-10-10H280a10 10 0 0 0-10 10v8H124c-.34 0-.67 0-1 .05s-.66-.05-1-.05H86zm308 148v-36h32v36zm32 20v36h-32v-36zm-32-76v-36h32v36zm-20-54v166h-84V286zm-128 54v-36h24v36zm24 20v36h-24v-36zm-44-56v92h-36v-92zm-56 0v92h-36v-92zm-84 0h28v36H86zm0 56h28v36H86zm0 56h36c.34 0 .67 0 1-.05s.66.05 1 .05h146v36H86zm373 56v20H53v-20z"/><path d="M411.65 118.92a10 10 0 1 0 2.93 7.08 10.07 10.07 0 0 0-2.93-7.08zM193.07 230.93A10 10 0 1 0 196 238a10.08 10.08 0 0 0-2.93-7.07zm129 131A10 10 0 1 0 325 369a10.08 10.08 0 0 0-2.93-7.07z"/></svg>