<svg data-name="Capa 1" xmlns="http://www.w3.org/2000/svg" viewBox="0 0 58 58"><path d="M9.5 43a5 5 0 1 0 5 5 5 5 0 0 0-5-5zm0 8a3 3 0 1 1 3-3 3 3 0 0 1-3 3z"/><path d="M56.5 35a4.24 4.24 0 0 0-2.72-4.23A5 5 0 0 0 50.5 22H36.13l.73-3.41A34.47 34.47 0 0 0 37 7.4C36.46 3.91 33.37 0 30 0h-.24c-1.58 0-4.26.91-4.26 7 0 8-2 11.69-3.68 13.36A5.16 5.16 0 0 1 18.5 22h-1v-2h-16v38h16v-2h28a5 5 0 0 0 3.93-8.09 5 5 0 0 0 3-8A5 5 0 0 0 56.5 35zm-53 21V22h12v34zm48-18h-11a1 1 0 0 0 0 2h8a3 3 0 0 1 0 6h-10a1 1 0 0 0 0 2h7a3 3 0 0 1 0 6h-28V24h1a6.82 6.82 0 0 0 4.68-2.15C26 19.06 27.5 14.06 27.5 7c0-1.87.3-5 2.27-5H30c2.23 0 4.61 3.13 5 5.69a32.55 32.55 0 0 1-.09 10.48L33.66 24H50.5a3 3 0 0 1 0 6h-10a1 1 0 0 0 0 2h7a34.65 34.65 0 0 1 3.85.19C54 32.58 54.5 33.6 54.5 35a3 3 0 0 1-3 3z"/></svg>