<svg data-name="Слой 1" xmlns="http://www.w3.org/2000/svg" viewBox="0 0 360 476"><path d="M31 2c-1.7 1.7-2 3.3-2 10.4v8.5l-8.7 2.6C-2.3 30.3 0 27.5 0 47.2 0 60.4.3 63.7 1.5 65c.9 1 7.4 3.5 14.5 5.6l13 3.8v8.7c0 8.3.1 8.9 2.6 10.8l2.7 2.1 139.9-.2 140-.3 1.9-2.4c1.7-2.1 1.9-4.1 1.9-19.7V56.1l4.6 1.6c7 2.4 14.2 8.8 18.3 16.3l3.6 6.5.3 22c.3 20.5.2 22.5-1.8 27.7-2.6 6.9-9.1 14.5-15.7 18-2.6 1.4-32.9 12.2-67.3 23.8s-65.1 22.6-68.3 24.3c-11.5 6-20.7 18-24.2 31.2-1 4.1-1.5 10.8-1.5 21.7V265h-15c-11.3 0-16 .4-18.8 1.6-11.7 4.9-16.4 19.1-10 30.5 2.3 4.2 7.7 8.4 12 9.4l2.8.7.2 71.2.3 71.1 2.8 5.7a35.92 35.92 0 0 0 17.5 17.1c6 2.8 7.7 3.2 15.7 3.2 8.2 0 9.7-.3 15.6-3.2a37.92 37.92 0 0 0 17.7-18.1l2.7-5.7.3-70.7.3-70.7 2.7-.6c4-.8 9.9-6 12.3-10.8 1.7-3.2 2-5.4 1.7-10.8-.4-8.3-3.9-14-10.7-17.6-4.1-2.1-5.6-2.3-19.8-2.3h-15.5l.4-16.8c.3-15.6.5-17.1 3-22.4 2.8-6.1 9.7-13.6 14.7-16.3 1.8-.9 32.3-11.5 67.9-23.6s66.7-23.2 69.1-24.6a50.87 50.87 0 0 0 22.1-28.1c1.7-5.6 2-9.3 2-29.1 0-25.1-.7-29.1-6.2-39-6.2-10.9-20.8-21.7-31.7-23.6l-4.1-.7V23c0-16.4-.2-17.9-2.1-20.4l-2-2.6H173.4C34.3 0 33 0 31 2zm272 46v33H44V15h259zm-274-.5c0 6.6-.4 10.5-1 10.5a49.85 49.85 0 0 1-7-1.8l-6-1.7V41.1l6.3-2a60.89 60.89 0 0 1 7-2c.4-.1.7 4.6.7 10.4zm180.8 234.1c3.1 2.2 2.9 6.7-.5 9.4-2.6 2-3.4 2.1-37.1 1.8l-34.4-.3-1.9-2.4c-2.4-3-2.4-4.2.2-7.5l2-2.6h34.8c29.7 0 35 .2 36.9 1.6zM195 375.8v67.8l-2.7 5.5c-6.5 12.8-22.4 15.9-33 6.6-7.6-6.7-7.3-3.1-7.3-79.5V308h43z"/><path d="M156.5 50.2c-2.9 1.6-3.5 2.8-3.5 6.9 0 6.2 1.7 6.9 17.2 6.9 15.2 0 16.8-.7 16.8-7.1 0-4-.7-5.2-3.7-6.8-2.8-1.5-24.1-1.4-26.8.1zm46 1.2c-3.1 3.1-3.3 7.8-.5 10.6 1.9 1.9 3.3 2 37.5 2s35.6-.1 37.5-2c2.5-2.5 2.6-7.1.1-10.1l-1.9-2.4-35.1-.3-35.1-.3zM160 337c-2.8 2.8-2.6 7.5.5 10.6 2.5 2.5 2.9 2.6 13.6 2.2 9.7-.3 11.2-.5 12.5-2.3 2.6-3.5 2.8-6.5.7-9.3-2-2.6-2.4-2.7-13.6-3-10.6-.2-11.8-.1-13.7 1.8zm.2 42.3a7.33 7.33 0 0 0 .1 10.5c2.1 2 3.4 2.2 12.9 2.2 12.6 0 15.2-1.3 15.2-7.5s-2.5-7.5-15.3-7.5c-9.9 0-10.9.2-12.9 2.3zm2.1 40.7c-4.4 1.8-5.7 8.6-2.3 12 1.8 1.8 3.3 2 13.4 2 11.2 0 11.5-.1 13.5-2.6a9.56 9.56 0 0 0 2.1-4 9.41 9.41 0 0 0-4.7-7.3c-2.8-1.3-18.8-1.4-22-.1z"/></svg>