<svg data-name="Слой 1" xmlns="http://www.w3.org/2000/svg" viewBox="0 0 476 476"><path d="M27 2c-1.9 1.9-2 3.3-2 40.4v38.5l2.6 2c2.3 1.8 4.1 2.1 12.5 2.1H50v14h-9.9c-8.4 0-10.2.3-12.5 2.1s-2.6 2.6-2.6 10.4v8.3l-10.4.4c-15.4.5-14.6-.9-14.6 25.7 0 22.9.8 32.2 4.1 49.1 5.9 29.6 21.6 63.2 40.7 86.9l5.2 6.4v92.2c0 88 .1 92.3 1.8 93.8s16.1 1.7 186.4 1.7c177.5 0 184.6-.1 186.1-1.8s1.7-9.7 1.7-93.9v-92l5.2-6.4c19.1-23.7 34.8-57.3 40.7-86.9 3.3-16.9 4.1-26.2 4.1-49.1 0-26.6.8-25.2-14.6-25.7l-10.4-.4v-8.3c0-7.8-.2-8.5-2.6-10.4s-4.1-2.1-12.5-2.1H426V85h9.9c8.4 0 10.2-.3 12.5-2.1l2.6-2V42.4c0-37.1-.1-38.5-2-40.4s-3.3-2-211-2S29 0 27 2zm126 40.5V70H40V15h113zm195-1.3c0 25.5.1 26.2 2.2 28.5a7.33 7.33 0 0 0 10.5.1c2.3-2.1 2.3-2.2 2.3-28.5V15h15.1l-.3 85.8c-.3 80.7-.4 86-2.1 88.5-2.3 3.5-7.4 6.7-10.7 6.7-3.9 0-9.2-3.3-11.2-7.1a19.44 19.44 0 0 1-1.8-8.5c0-10.8-6.1-20.7-15.4-25-6.9-3.2-20.8-3.4-27.6-.3a29.07 29.07 0 0 0-13.3 12.4c-2.1 3.8-2.2 5.5-2.7 41.5-.4 33.7-.7 37.9-2.3 40.3-3 4.5-6.5 6.2-13.2 6.2-6.4-.1-10.5-1.9-12.8-5.9-.9-1.6-1.3-18.6-1.7-65.6l-.5-63.5-2.8-5.7c-5.4-11-14.2-15.8-28.8-15.8-10.9 0-17.4 2.6-23.3 9.2s-7.6 12.1-7.6 25.5c0 10.3 0 10.4-3.2 13.9-6.1 6.5-18 7-24.7.8l-3.6-3.2-.3-65.1L168 15h180zm88 1.3V70h-43V15h43zm-283 72.3c0 33.7.4 35.9 7 43.5 5.9 6.6 12.2 9 24 9 10.8.1 17-2 22.9-7.6s8.1-11.7 8.1-23.5c0-11.3 1.1-15.2 5.4-19.2 3.8-3.5 15.5-4.1 20.3-1.1 7.2 4.5 6.7.3 7.3 72.1s.1 67 7.7 74.6c5.8 5.9 11.3 7.8 21.8 7.8 7 0 10-.4 13.5-2 6.4-3 10.7-6.9 13.8-12.8l2.7-5.1.5-37.7.5-37.8 3.1-3.1c5.8-5.7 16-5.8 21.7-.1 2.5 2.6 3 4 3.7 10.9 1 9.4 2.6 13.6 7 18.7 12.8 14.5 36.6 11.4 45.5-5.9l3-5.9.3-52.3.3-52.3H412v196.3l-8.2 8.1c-30.9 30.4-70 49.1-113.8 54.6-11 1.3-93 1.3-104 0-43.3-5.4-81.2-23.4-112.8-53.7l-8.2-7.8V85h88zM50 128v14H40v-28h10zm386 0v14h-10v-28h10zM25 143.9c0 8.5.1 9.1 2.6 11 2.3 1.8 4.1 2.1 12.5 2.1H50v52.6c0 28.9-.4 52.3-.8 52s-3.2-4.3-5.9-8.8C24.1 221.3 15 188.5 15 150.4V135h10zm436 6.5c0 38.1-9.1 70.9-28.3 102.4-2.7 4.5-5.4 8.5-5.9 8.8s-.8-23.1-.8-52V157h9.9c8.4 0 10.2-.3 12.5-2.1 2.5-1.9 2.6-2.5 2.6-11V135h10zM92 325.3c26.5 17.8 60.6 30.2 92.2 33.6 12.6 1.4 95 1.4 107.6 0 39.7-4.3 81.4-22.2 111-47.8l8.2-7.1v157H65V304l8.2 7.1c4.6 3.9 13 10.3 18.8 14.2z"/><path d="M352.3 89c-3.4 1.4-4.3 4.2-4.3 14 0 8.3.2 9.3 2.5 11.5 3 3 6.4 3.2 9.9.4 2.5-2 2.6-2.4 2.6-11.9 0-7.9-.3-10.2-1.7-11.8a8.06 8.06 0 0 0-9-2.2zM96.2 420c-4.4 1.8-5.4 8.7-1.6 12.4 1.4 1.4 10.8 1.6 87.9 1.6h86.4l1.5-2.2c2.3-3.2 2-8.1-.5-10.4-2-1.8-5.1-1.9-86.8-2.1-49.4-.1-85.5.2-86.9.7zm205.6.5a6.92 6.92 0 0 0-2 10.4l1.9 2.6 20.3.3c14.9.2 20.6-.1 21.7-1 4-3.3 3.3-10.6-1.3-12.7-3.9-1.7-37.2-1.4-40.6.4z"/></svg>