<svg data-name="Слой 1" xmlns="http://www.w3.org/2000/svg" viewBox="0 0 338 546"><path d="M32.5 1.4A48 48 0 0 0 4.7 25.7l-3.2 6.8v481l3.2 6.8a48.81 48.81 0 0 0 22 22l6.8 3.2h271l6.8-3.2a48.81 48.81 0 0 0 22-22l3.2-6.8v-481l-3.2-6.8a48.81 48.81 0 0 0-22-22L304.5.5l-134-.2C64.2.2 35.7.4 32.5 1.4zm264.7 35.8a10.8 10.8 0 0 1 3.7 5.5c.8 2.6 1.1 61.4 1.1 182.5V404H36l.2-180.8c.3-170.4.4-180.9 2.1-183.5a10.3 10.3 0 0 1 5-3.6c1.9-.6 51.8-.9 127.2-.8 116.1.2 124.3.3 126.7 1.9zm4.8 432.5c0 36-.3 37.7-7 40-5 1.7-247 1.7-252 0-6.7-2.3-7-4-7-40V438h266z"/><path d="M120 95.5V111h100V80H120zm38.3 363.1q-9.3 5.55-9.3 17.4c0 12.3 7.7 20 20 20s20-7.7 20-20-7.7-20-20.1-20c-5.1 0-7.3.5-10.6 2.6z"/></svg>