<svg viewBox="0 0 477 477" xmlns="http://www.w3.org/2000/svg"><path d="m238.4 0c-105.4 0-191.2 85.8-191.2 191.2a188.19 188.19 0 0 0 3.4 35.9c.1.7.5 2.8 1.3 6.4a188.3 188.3 0 0 0 12.8 37.7c20.6 48.5 65.9 123 165.3 202.8a13.54 13.54 0 0 0 17 0c99.3-79.8 144.7-154.3 165.3-202.8a186.19 186.19 0 0 0 12.8-37.7c.8-3.6 1.2-5.7 1.3-6.4a196.63 196.63 0 0 0 3.4-35.9c-.2-105.4-86-191.2-191.4-191.2zm161.2 222.4c0 .2-.1.4-.1.6-.1.5-.4 2-.9 4.3v.2a158.75 158.75 0 0 1 -11.1 32.6c-.1.1-.1.3-.2.4-18.7 44.3-59.7 111.9-148.9 185.6-89.2-73.7-130.2-141.3-148.9-185.6-.1-.1-.1-.3-.2-.4a169.35 169.35 0 0 1 -11.1-32.6v-.2c-.6-2.3-.8-3.8-.9-4.3 0-.2-.1-.4-.1-.7a163.31 163.31 0 0 1 -3-31.2c0-90.5 73.7-164.2 164.2-164.2s164.2 73.7 164.2 164.2a162.8 162.8 0 0 1 -3 31.3z"/><path d="m238.4 71.9c-66.9 0-121.4 54.5-121.4 121.4s54.5 121.4 121.4 121.4 121.4-54.5 121.4-121.4-54.5-121.4-121.4-121.4zm0 215.8a94.4 94.4 0 1 1 94.4-94.4 94.51 94.51 0 0 1 -94.4 94.4z"/></svg>