<svg data-name="Layer 1" xmlns="http://www.w3.org/2000/svg" viewBox="0 0 512 512"><path d="M246.86 33a8 8 0 0 0-9.26-6.38c-29.54 5.43-46.82 23.14-60.7 37.38-14.44 14.81-24 24.6-44.93 24.6S101.48 78.81 87 64C71 47.54 49 25 8 25a8 8 0 0 0-8 8v102.2a8 8 0 0 0 15.9 0V41.24C45.13 43.8 61.28 60.35 75.66 75.1c13.15 13.5 24.79 25.41 45.19 28.57V330.2a7.95 7.95 0 1 0 15.89 0V104.36c24.47-1.49 37.08-14.42 51.55-29.26 13-13.28 27.62-28.33 52.19-32.84a8 8 0 0 0 6.38-9.26z"/><path d="M504.05 25C463 25 441 47.54 425 64c-14.48 14.81-24 24.6-45 24.6s-30.47-9.79-44.91-24.6c-13.88-14.23-31.15-31.95-60.69-37.38a8 8 0 1 0-2.88 15.64c24.57 4.52 39.24 19.56 52.18 32.84 14.47 14.84 27.09 27.77 51.56 29.25V203a8 8 0 0 0 15.9 0v-99.33c20.39-3.16 32-15.07 45.19-28.57 14.37-14.75 30.52-31.3 59.75-33.86V376c-36 2.68-56.16 23.34-71.14 38.7-11.61 11.91-20.06 20.56-33.8 23.5V245.4a7.95 7.95 0 0 0-15.9 0v193.71c-17.72-1.4-26.87-10.77-40.17-24.41-16-16.46-38-39-79.09-39s-63 22.54-79.09 39c-13.3 13.64-22.45 23-40.16 24.41V372.6a8 8 0 1 0-15.9 0v65.6c-13.75-2.94-22.2-11.59-33.81-23.5-15-15.36-35.13-36-71.14-38.7V186A7.95 7.95 0 0 0 0 186v229.45a8 8 0 0 0 8 7.95c21 0 30.49 9.78 44.93 24.6 16.05 16.46 38 39 79.09 39s63-22.54 79.09-39c14.44-14.82 24-24.6 44.93-24.6s30.5 9.78 44.94 24.6C317 464.46 339 487 380 487s63-22.54 79.09-39c14.45-14.82 24-24.6 44.94-24.6a8 8 0 0 0 7.95-7.95V33a8 8 0 0 0-7.93-8zm-7.95 382.9c-22.41 2.37-34.54 14.82-48.37 29-15.63 16-33.35 34.2-67.71 34.2s-52.02-18.17-67.71-34.2c-15.38-15.78-28.66-29.4-56.32-29.4s-40.93 13.62-56.31 29.4c-15.63 16-33.35 34.2-67.71 34.2s-52.07-18.17-67.7-34.2c-13.83-14.19-26-26.63-48.37-29v-16c29.23 2.56 45.38 19.11 59.75 33.86C91 441.58 104.32 455.2 132 455.2s40.94-13.62 56.32-29.4c15.63-16 33.35-34.2 67.7-34.2s52.08 18.17 67.71 34.2c15.38 15.78 28.67 29.4 56.32 29.4s40.94-13.62 56.32-29.4c14.38-14.74 30.52-31.3 59.76-33.86v16z"/></svg>