<svg viewBox="0 0 607 557" xmlns="http://www.w3.org/2000/svg"><path d="m267.8 3.3a155.88 155.88 0 0 0 -10.8 13.9l-7.5 10.6-13.3-6.9c-21.6-11.2-24.3-10.2-33.2 12.1-2.9 7.4-5.5 13.7-5.7 13.9s-6.6-1-14.2-2.7c-17.7-4.1-19.2-4-23.7.1-3.6 3.3-3.7 3.4-5.8 18.8l-2.2 15.4-7.4.6c-4.1.4-11.4.7-16.1.8-7.2.1-9.1.5-11.4 2.3-5.1 4-5.6 6.7-3.9 23.2.9 8.1 1.3 15 1 15.3s-7 2.3-14.8 4.4c-12.8 3.4-14.6 4.2-17.6 7.4-2.1 2.3-3.2 4.5-3.2 6.4 0 1.7 2.3 9.4 5 17.2 3.8 10.9 4.7 14.5 3.8 15.1-.7.5-6.3 3.6-12.5 6.9-13.9 7.6-16.8 10.5-16.8 16.3 0 3.8 1.1 6 8.7 17.4l8.7 13-9.3 8.6-9.4 8.6h-49.4l-3.5 3.5-3.6 3.6.6 18.2c1.3 42.4 11.7 81.2 32.5 122 43.7 85.9 126.1 147.4 219.2 163.6 34.8 6.1 75.9 5.5 110.5-1.5 80.2-16.2 153-67 198-138.4 9-14.3 23.4-43.7 29-59.5a311.3 311.3 0 0 0 16.5-75.5c1.4-16.5 1.3-26.6-.4-29.9-3.1-5.8-4.4-6.1-29.1-6.1h-22.6l-9-8.2c-4.9-4.6-8.9-8.6-8.9-9.1s3.1-5.4 6.8-11c8.5-12.6 10.2-15.8 10.2-19.4 0-5.6-3.1-8.5-17.4-16.3-10.2-5.6-13.5-7.8-13-9 3.8-9.5 9.4-27 9.4-29.3 0-3.7-2.5-8.3-5.3-9.8-1.2-.7-8.4-2.9-16-5s-14.1-3.9-14.3-4.2.3-7.2 1.2-15.5c1.4-13.8 1.4-15.4 0-18.4-2.7-5.6-5.3-6.5-22.6-7.2-8.5-.4-15.6-.9-15.8-1.1s-1.2-6.5-2.3-14.2c-2.1-15.1-3.6-19.1-7.9-21.6-3.8-2.3-5.6-2.2-21.5 1.4-7.5 1.7-14.1 2.7-14.5 2.3s-3.1-6.8-6-13.9c-8.4-21.5-11.1-22.5-32-12-7.1 3.6-13.4 6.5-13.9 6.5s-4.8-5.4-9.6-12-9.6-12.6-10.8-13.5c-2.9-2-9.6-1.9-12.7.2-1.4.9-7.1 5.7-12.7 10.5l-10.2 8.8-10.8-9.3c-12.6-11-13.9-11.7-19.2-11.7-3.2 0-4.7.7-7.3 3.3zm20.4 34.8c11.2 9.8 14.8 11.5 19.8 10 1.9-.6 8-4.9 13.4-9.6s10.3-8.5 10.7-8.5 4.2 4.9 8.5 11c8 11.1 11.4 14 16.7 14 1.3 0 8-2.7 14.7-6s12.6-5.7 13.1-5.3 2.8 6.1 5.4 12.5c7.2 18.2 9 19 30.1 14.2 6.3-1.5 11.7-2.4 12-2.1s1.4 6.4 2.4 13.5c2 14.4 2.8 16.5 7.3 19.2 2.8 1.7 5.1 2 17.1 2h13.9l-.6 7.7c-.4 4.3-.9 11.2-1.3 15.4l-.7 7.6 3.4 3.7c3.1 3.3 4.7 4 16.3 7.1 7.1 1.9 13.1 3.6 13.3 3.9s-1.4 5.8-3.8 12.3c-5.1 13.9-5.5 19-1.9 22.8 1.3 1.4 7.5 5.4 13.7 8.8s11.3 6.5 11.3 7-3.4 5.8-7.5 12c-6.4 9.6-7.5 11.8-7.5 15.5s.6 4.9 5.1 9.8l5.2 5.4h-48l-.6-7.4c-3.1-36.7-21.8-74.2-50.7-101.9-22.8-21.8-49.6-36-81.3-42.9-8.8-1.9-13.2-2.2-32.2-2.3-24.8 0-34.7 1.5-53.9 8.2-60 20.7-103.5 74.4-110.8 136.5l-1.2 9.8h-47.9l5.1-4.9c4.8-4.6 5.2-5.3 5.2-9.7 0-4.1-.9-6.1-7.7-16.7-4.3-6.6-7.3-12.2-6.8-12.4s6.2-3.3 12.6-6.9c11.8-6.7 14.9-9.7 14.9-14.7 0-1.4-2-8.3-4.5-15.3s-4.4-12.9-4.1-13.1 6.1-1.9 13-3.8 13.7-4 15-4.8c4.4-2.9 5.1-6.6 3.8-20.6-.7-6.9-1.2-13.4-1.2-14.3 0-1.5 1.8-1.7 15-2l15-.3 3-3.1c2.9-2.8 3.3-4 5.2-17 1.1-7.6 2.1-14.1 2.3-14.3s5.7.8 12.2 2.3 13.5 2.6 15.6 2.6c6.1 0 9.6-4.3 15.2-18.7l4.8-12.2 12.8 6.5c7.1 3.5 14 6.4 15.4 6.4 4.8 0 8-2.8 15.9-13.9 4.4-6.1 8.3-11.1 8.7-11.1s4.9 3.6 10.1 8.1zm44.8 75.4a144.15 144.15 0 0 1 69.7 36.8 140.87 140.87 0 0 1 41.4 75.9 122.9 122.9 0 0 1 1.9 12.8v3l-38.1-.2-38.1-.3-2.2-7.1c-3.5-10.8-8.1-18.1-17.5-27.4-12.2-12.1-23.7-17.8-40.4-20a72.56 72.56 0 0 0 -30.9 3c-20 6.7-37.7 24.6-44 44.7l-2.3 7.3h-34.2c-32.5 0-34.3-.1-34.3-1.8 0-4.6 3.5-21.6 6.2-30.2a142.59 142.59 0 0 1 113.3-97.6c10.7-1.8 39.4-1.1 49.5 1.1zm-22.9 97.9a64.94 64.94 0 0 1 12 4.1c7.5 3.9 16.3 12.6 19.9 19.9l3.1 6.1-43.2.3c-23.8.1-43.4 0-43.7-.3s.7-2.9 2.2-5.8c6.3-13 18.6-22 33.6-24.7 6.7-1.2 8.9-1.1 16.1.4zm272.5 58.8c-.3 2.4-.8 7.4-1.2 11.3-4.3 49.1-27.3 104.3-61 146.5-8.7 10.9-32.5 34.7-43.4 43.4a283.71 283.71 0 0 1 -134.5 59.2c-16.9 2.6-62 2.7-78 .1-62.4-10-114.6-36.7-158.7-81-21.9-22-38.6-45.5-52.8-74.2-12.3-24.8-18.9-43.6-23.9-68-2.4-11.3-5.1-31.6-5.1-37.6v-3.9h559.1z"/></svg>