<svg data-name="Слой 1" xmlns="http://www.w3.org/2000/svg" viewBox="0 0 476 476"><path d="M232.7 232.8C18.6 446.9 0 465.8 0 468.8a7.8 7.8 0 0 0 2 5.2c2 2 3.3 2 236 2s234 0 236-2 2-3.3 2-236 0-234-2-236a7.86 7.86 0 0 0-5.3-2c-2.9 0-21.7 18.5-236 232.8zM461 40.5V55h-7.5c-6.7 0-7.9.3-10 2.5a8.24 8.24 0 0 0-2.5 5 8.24 8.24 0 0 0 2.5 5c2.1 2.2 3.3 2.5 10 2.5h7.5v11h-14.5c-14.2 0-14.7.1-17 2.5a8.24 8.24 0 0 0-2.5 5 8.24 8.24 0 0 0 2.5 5c2.3 2.4 2.8 2.5 17 2.5H461v11h-7.5c-6.7 0-7.9.3-10 2.5a8.24 8.24 0 0 0-2.5 5 8.24 8.24 0 0 0 2.5 5c2.1 2.2 3.3 2.5 10 2.5h7.5v33h-7.9c-7.5 0-8.1.2-10.1 2.7a6.45 6.45 0 0 0-1.6 5.8c1 4.9 2.9 6 11.6 6.3l8 .4V181h-29.9l-2.1 2.7a6.45 6.45 0 0 0-1.6 5.8c1.2 5.6 2.3 6 18.6 6.3l15 .3V207h-7.9c-7.5 0-8.1.2-10.1 2.7a6.45 6.45 0 0 0-1.6 5.8c1 4.9 2.9 6 11.6 6.3l8 .4v31.6l-8 .4c-8.7.3-10.6 1.4-11.6 6.3a6.45 6.45 0 0 0 1.6 5.8c2 2.5 2.6 2.7 10.1 2.7h7.9v10.9l-15 .3c-16.3.3-17.4.7-18.6 6.3a6.45 6.45 0 0 0 1.6 5.8l2.1 2.7H461v10.8l-8 .4c-8.7.3-10.6 1.4-11.6 6.3a6.45 6.45 0 0 0 1.6 5.8c2 2.5 2.6 2.7 10.1 2.7h7.9v33h-7.5c-6.7 0-7.9.3-10 2.5-3.2 3.1-3.2 6.9 0 10 2.1 2.2 3.3 2.5 10 2.5h7.5v11h-14.5c-14.2 0-14.7.1-17 2.5a6.25 6.25 0 0 0 0 10c2.3 2.4 2.8 2.5 17 2.5H461v11h-7.5c-6.7 0-7.9.3-10 2.5-3.2 3.1-3.2 6.9 0 10 2.1 2.2 3.3 2.5 10 2.5h7.5v40h-40v-7.5c0-6.7-.3-7.9-2.5-10a6.25 6.25 0 0 0-10 0c-2.2 2.1-2.5 3.3-2.5 10v7.5h-11v-14.5c0-14.2-.1-14.7-2.5-17-3.1-3.2-6.9-3.2-10 0-2.4 2.3-2.5 2.8-2.5 17V461h-11v-7.5c0-6.7-.3-7.9-2.5-10-3.1-3.2-6.9-3.2-10 0-2.2 2.1-2.5 3.3-2.5 10v7.5h-33v-7.9c0-7.5-.2-8.1-2.7-10.1a6.45 6.45 0 0 0-5.8-1.6c-4.9 1-6 2.9-6.3 11.6l-.4 8H295v-29.9l-2.7-2.1a6.45 6.45 0 0 0-5.8-1.6c-5.6 1.2-6 2.3-6.3 18.6l-.3 15H269v-7.9c0-7.5-.2-8.1-2.7-10.1a6.45 6.45 0 0 0-5.8-1.6c-4.9 1-6 2.9-6.3 11.6l-.4 8h-31.6l-.4-8c-.3-8.7-1.4-10.6-6.3-11.6a6.45 6.45 0 0 0-5.8 1.6c-2.5 2-2.7 2.6-2.7 10.1v7.9h-10.9l-.3-15c-.3-16.3-.7-17.4-6.3-18.6a6.45 6.45 0 0 0-5.8 1.6l-2.7 2.1V461h-10.8l-.4-8c-.3-8.7-1.4-10.6-6.3-11.6a6.45 6.45 0 0 0-5.8 1.6c-2.5 2-2.7 2.6-2.7 10.1v7.9h-33v-7.5c0-6.7-.3-7.9-2.5-10-3.1-3.2-6.9-3.2-10 0-2.2 2.1-2.5 3.3-2.5 10v7.5H96v-14.5c0-14.2-.1-14.7-2.5-17-3.1-3.2-6.9-3.2-10 0-2.4 2.3-2.5 2.8-2.5 17V461H70v-7.5c0-6.7-.3-7.9-2.5-10-3.1-3.2-6.9-3.2-10 0-2.2 2.1-2.5 3.3-2.5 10v7.5H25.5L243 243.5C362.6 123.9 460.6 26 460.7 26s.3 6.5.3 14.5z"/><path d="M281.8 281.8C179.1 384.4 168 395.8 168 398.6a10.39 10.39 0 0 0 1.9 5.5l1.9 2.4 113.9.3c81.1.2 114.6-.1 116.5-.9a8.28 8.28 0 0 0 3.7-3.7c.8-1.9 1.1-35.4.9-116.5l-.3-113.9-2.4-1.9a10.39 10.39 0 0 0-5.5-1.9c-2.8 0-14.2 11.1-116.8 113.8zM392 293v99H193.5l99-99c54.4-54.5 99.1-99 99.2-99s.3 44.5.3 99z"/></svg>