<svg data-name="Слой 1" xmlns="http://www.w3.org/2000/svg" viewBox="0 0 470 470"><path d="M235 104.61A130.39 130.39 0 1 0 365.39 235 130.38 130.38 0 0 0 235 104.61zm0 240.78A110.39 110.39 0 1 1 345.39 235 110.39 110.39 0 0 1 235 345.39zM245 61V10a10 10 0 0 0-20 0v51a10 10 0 0 0 20 0zm-10 338a10 10 0 0 0-10 10v51a10 10 0 0 0 20 0v-51a10 10 0 0 0-10-10zm225-174h-51a10 10 0 0 0 0 20h51a10 10 0 0 0 0-20zM71 235a10 10 0 0 0-10-10H10a10 10 0 0 0 0 20h51a10 10 0 0 0 10-10zm294.26-116.12l35.47-35.47a10 10 0 0 0-14.14-14.14l-35.47 35.47a10 10 0 1 0 14.14 14.14zM104.74 351.12l-35.47 35.47a10 10 0 1 0 14.14 14.14l35.47-35.47a10 10 0 1 0-14.14-14.14zm260.52 0a10 10 0 1 0-14.14 14.14l35.47 35.47a10 10 0 0 0 14.14-14.14zM104.74 118.88a10 10 0 1 0 14.14-14.14L83.41 69.27a10 10 0 0 0-14.14 14.14z"/></svg>