<svg data-name="Layer 1" xmlns="http://www.w3.org/2000/svg" viewBox="0 0 512 512"><path d="M322.78 33.39H272.7V16.7a16.7 16.7 0 0 0-33.4 0v16.69h-50.08C88 33.39 5.57 115.78 5.57 217a16.7 16.7 0 0 0 16.69 16.7h217.05v66.78h-83.48a16.7 16.7 0 1 0 0 33.39h50.08v16.7a50.17 50.17 0 0 0 33.4 47.22v80.78h-16.7a16.7 16.7 0 1 0 0 33.39h66.78a16.7 16.7 0 1 0 0-33.39H272.7v-80.75a50.16 50.16 0 0 0 33.39-47.21v-16.7h50.08a16.7 16.7 0 1 0 0-33.39H272.7v-66.78h217a16.7 16.7 0 0 0 16.7-16.7c.03-101.26-82.35-183.65-183.62-183.65zm-200.35 167H39.88A150.6 150.6 0 0 1 165.7 68.63 133.23 133.23 0 0 0 122.43 167v33.39zM272.7 350.61a16.7 16.7 0 0 1-33.4 0v-16.7h33.4v16.7zm83.47-150.26H155.83V167a100.17 100.17 0 1 1 200.34 0zm33.4 0V167a133.23 133.23 0 0 0-43.27-98.37 150.6 150.6 0 0 1 125.82 131.72z"/><path d="M89 367.3H39v-83.47a16.7 16.7 0 1 0-33.39 0V495.3a16.7 16.7 0 1 0 33.39 0v-27.82h66.78v27.82a16.7 16.7 0 1 0 33.39 0v-77.91A50.15 50.15 0 0 0 89 367.3zm16.7 66.79H39V400.7h50a16.71 16.71 0 0 1 16.7 16.69v16.7zm384.04-166.96a16.7 16.7 0 0 0-16.7 16.7v83.47H423a50.15 50.15 0 0 0-50.09 50.09v77.91a16.7 16.7 0 1 0 33.39 0v-27.82H473v27.82a16.7 16.7 0 0 0 33.4 0V283.83a16.71 16.71 0 0 0-16.66-16.7zm-16.7 167h-66.78v-16.7A16.71 16.71 0 0 1 423 400.7h50z"/></svg>