<svg data-name="Capa 1" xmlns="http://www.w3.org/2000/svg" viewBox="0 0 512 512"><path d="M213.1 208.66a85.89 85.89 0 0 0 20.44 7.68 98 98 0 0 0 44.93 0 89.39 89.39 0 0 0 20.15-7.51 7.48 7.48 0 0 1 10.8 3.88c5.84 15.88 17.91 28.63 32.2 37.31 16.27 9.86 35.46 14.6 54.4 14.6 25.23 0 48-8.31 64.4-21.69 16-13 25.85-30.92 25.85-50.63 0-14.82-5.58-28.63-15.13-40.08-10.07-12-24.52-21.57-41.56-27.07a7.42 7.42 0 0 1-5.24-7.37 51.49 51.49 0 0 0-4.26-22.59 60.94 60.94 0 0 0-14.25-20.1A79.93 79.93 0 0 0 379 58.57a93.88 93.88 0 0 0-33.11-5.87 97.1 97.1 0 0 0-11.91.71 7.52 7.52 0 0 1-7.75-3.41c-6.49-10.46-16.5-19.27-28.77-25.45a94.77 94.77 0 0 0-82.92 0c-12.21 6.15-22.19 14.91-28.71 25.34a7.48 7.48 0 0 1-7.37 3.57 100.63 100.63 0 0 0-12.39-.76 96.43 96.43 0 0 0-19.92 2 91.22 91.22 0 0 0-18.49 6 7.48 7.48 0 1 1-6.15-13.64 102.06 102.06 0 0 1 21.57-7 109.48 109.48 0 0 1 23-2.41c3.21 0 6.44.14 9.61.43a87.72 87.72 0 0 1 32.12-27 109.58 109.58 0 0 1 96.4 0 87.72 87.72 0 0 1 32.12 27c3.17-.29 6.41-.43 9.61-.43a109.7 109.7 0 0 1 38.38 6.86 94.88 94.88 0 0 1 31.83 19.67 76.83 76.83 0 0 1 17.72 25 66.86 66.86 0 0 1 5.41 23.45c17.52 6.54 32.52 17 43.35 30 11.76 14.12 18.65 31.21 18.65 49.63 0 24.41-12 46.38-31.41 62.23-19 15.5-45.1 25.08-73.84 25.08a123.58 123.58 0 0 1-44.48-8.16 90.77 90.77 0 0 0-13.43 11.37c-4.26 4.56-7.77 9.95-11.65 17.83a102 102 0 0 0-6.21 16 116.79 116.79 0 0 0-3.69 17.6 7.47 7.47 0 1 1-14.82-1.9 130.49 130.49 0 0 1 4.16-19.92 113.49 113.49 0 0 1 7.15-18.37c4.59-9.36 8.87-15.85 14.12-21.46a80.63 80.63 0 0 1 9.15-8.42l-2.41-1.44a101.49 101.49 0 0 1-17.52-13.38A111.25 111.25 0 0 0 304.94 262a121.73 121.73 0 0 0-13.41 21.54c-1.75 3.55-3.37 7.23-4.87 11.11-1.39 3.6-2.67 7.32-3.77 11.09a7.51 7.51 0 0 1-14.89-1.47v-71a110 110 0 0 1-24.06 0v71a7.49 7.49 0 0 1-14.69 2.07c-1.13-3.94-2.46-7.85-3.94-11.65s-3.11-7.56-4.87-11.11A121.73 121.73 0 0 0 207.06 262a111.25 111.25 0 0 0-11.45-12.64 102.17 102.17 0 0 1-19.93 14.82 79.07 79.07 0 0 1 9.16 8.42c5.24 5.64 9.52 12.1 14.11 21.46a118.27 118.27 0 0 1 9.3 26.81 136.12 136.12 0 0 1 3.18 29.37v34.58a95.76 95.76 0 0 1 70.72 33.77 93.84 93.84 0 0 1 18.42-6.38v-45a7.5 7.5 0 1 1 15 0V410c2.1-.14 4.22-.2 6.35-.2a93.16 93.16 0 0 1 47.73 13.07 94.13 94.13 0 0 1 31.47 30.59 52.34 52.34 0 0 1 11.9-1.36 53.64 53.64 0 0 1 53.58 52.27 7.56 7.56 0 0 1-7.51 7.65H52.88c-4.56 0-7.51-3.63-7.51-7.94a59.1 59.1 0 0 1 74-57.11 91.37 91.37 0 0 1 3.68-8.51 98.61 98.61 0 0 1 8.9-14.63 7.48 7.48 0 0 1 12 8.91 79.24 79.24 0 0 0-7.48 12.33c-2.47 5-3.52 9.44-5.47 14.2a7.47 7.47 0 0 1-9.75 4.08A44.1 44.1 0 0 0 60.93 497h389.74a38.65 38.65 0 0 0-50.54-27.73 7.53 7.53 0 0 1-9.07-3.48 78.66 78.66 0 0 0-69.14-41 80.31 80.31 0 0 0-19.76 2.46 77.69 77.69 0 0 0-18.31 7.32 7.49 7.49 0 0 1-9.75-2 81.56 81.56 0 0 0-28.69-24.13 80.75 80.75 0 0 0-78.66 3.38A7.49 7.49 0 1 1 158.9 399a95.76 95.76 0 0 1 37.53-13.35v-35.37a121.82 121.82 0 0 0-2.75-26.13 104.49 104.49 0 0 0-8.14-23.5c-3.88-7.88-7.39-13.24-11.65-17.83a89.57 89.57 0 0 0-13.43-11.37 123.58 123.58 0 0 1-44.46 8.17c-28.74 0-54.85-9.59-73.84-25.09-19.39-15.85-31.41-37.82-31.41-62.22 0-18.43 6.89-35.52 18.65-49.64 10.83-13 25.83-23.41 43.35-30A67 67 0 0 1 77 92a73.85 73.85 0 0 1 14.58-23.34 7.45 7.45 0 1 1 11 10A59.79 59.79 0 0 0 91 97.32a52 52 0 0 0-3.4 20.24 7.48 7.48 0 0 1-5.16 7.59c-17.07 5.5-31.55 15-41.61 27.07-9.56 11.46-15.14 25.26-15.14 40.09 0 19.7 9.89 37.58 25.85 50.62C68 256.31 90.76 264.62 116 264.62c18.94 0 38.13-4.74 54.4-14.6 14.09-8.56 26.05-21.09 32-36.68 1.7-4.48 6.12-7.12 10.74-4.68zm-7.57 29.54a122.22 122.22 0 0 1 13.38 14.65 135.24 135.24 0 0 1 10.06 15V230.6a105.26 105.26 0 0 1-15.56-5.22 81.88 81.88 0 0 1-7.88 12.82zm100.94 0a82.35 82.35 0 0 1-7.88-12.82A105.26 105.26 0 0 1 283 230.6v37.22a135.24 135.24 0 0 1 10.06-15 122.22 122.22 0 0 1 13.38-14.65z"/></svg>