<svg data-name="Слой 1" xmlns="http://www.w3.org/2000/svg" viewBox="0 0 368 339"><path d="M77.8 1A64.26 64.26 0 0 0 42 19.9C33.3 28.7 27.9 38 25 49.6c-2.4 9.2-2.6 22.2-.6 30.9l1.4 5.9-3.2 3.7C6.1 108.3-2.4 135.7.9 160.2c1.4 10.6 5.5 23.5 8.3 26.5 4.4 4.7 12.8 1.7 12.8-4.5 0-1.6-1.2-6.2-2.7-10.3-2.5-6.8-2.7-8.7-2.7-22.4-.1-13.9.1-15.6 2.7-23a81.05 81.05 0 0 1 17.1-28.3c3.6-4 6.6-7.9 6.6-8.8a41.86 41.86 0 0 0-2-7.3 50.17 50.17 0 0 1 20.1-58c14.9-9.9 34.5-10.9 51.1-2.5 5.3 2.7 16.4 12.6 17.3 15.4.3 1.1-.5 4.1-2 7-6.1 12-6.8 17.4-7.3 54.1l-.4 33.6-11.9 11.9L96 155.5V92.1l-2.6-2c-3.5-2.8-6.9-2.6-9.9.4-2.5 2.4-2.5 2.6-2.5 20.6v18.2l-7.9-7.6c-5.8-5.7-8.6-7.7-10.5-7.7-3.8 0-7.6 4.1-7.6 8.1 0 2.8 1.8 5 13 16.4l13 13.1v35.1c0 32.9-.1 35.1-1.7 34.8-1-.2-6-1.4-11.1-2.6l-9.2-2.3-2.8 2.1a8.46 8.46 0 0 0-2.3 10.2c1.4 2.5 9.5 5.5 19.4 7.2l7.7 1.3v20.9c0 19.5-.1 20.9-1.7 20.2-9.1-3.7-24-2.7-33.5 2.1-7 3.5-14.8 11.6-18.3 18.9-5.3 11.1-4.4 31.8 1.7 37.5 2.2 2 3.1 2 153.4 2 146.2 0 151.3-.1 153.5-1.9 2.9-2.3 3.1-8.1.4-11.1-1.7-1.9-2.9-2-19.7-2H299v-66l2.8-.5c17.5-3.7 26.4-7.6 37.5-16.4 32.7-26 37.8-74.9 11.1-107.6-4.3-5.3-4.4-5.6-3.4-9.7 1.5-6.5 1.2-20.6-.5-27.2-3.5-13.3-14-27.7-25-34.2-12.8-7.5-29.4-10.2-42.8-7-8.5 2-8.7 2-8.7-.2 0-.9-1.3-4.7-2.9-8.3A76.66 76.66 0 0 0 161 9.1c-7.1 3.7-19.1 12.7-19.8 15-.2.5-3.7-2.1-7.7-6A66.6 66.6 0 0 0 106 2.5C99.2.6 84.1-.2 77.8 1zm139.4 18.3a62.2 62.2 0 0 1 37.5 39.1l2.7 8.1.4 54.7c.3 45.5.1 56.2-1.2 63.5a62.29 62.29 0 0 1-43.6 48.9c-9.2 2.8-9 3-9-10.3v-11.7l13.5-13.6c12.3-12.5 13.5-14 13.5-17.3a6.11 6.11 0 0 0-2.6-5.6c-4.7-3.7-6.9-2.8-16 6.1l-8.4 8.2v-25.7c0-24.4-.1-25.8-2-27.7-2.7-2.7-7.7-2.6-10.7.2-2.2 2.1-2.3 2.8-2.3 16.7v14.5l-5.8-5.7c-4.3-4.3-6.5-5.7-8.7-5.7a7.69 7.69 0 0 0-7.5 7.8c0 3.1 1.2 4.8 11 14.7l11 11.1v22.7c0 25.8.8 24-9.1 21.1a64.3 64.3 0 0 1-41-38.5l-2.4-6.4-.3-60.2c-.2-53-.1-61 1.3-66.5 5.3-20.2 22.5-37.9 43-44 9.2-2.7 27.7-2 36.7 1.5zM298 70c18.9 3.6 33.3 19.5 34.7 38.4a32.1 32.1 0 0 1-1.6 14.4 64 64 0 0 0-2.1 8.6c0 .8 2.9 4.7 6.4 8.6 7 7.8 12.8 18.3 15.1 27.5 1.9 7.5 1.9 20.2 0 28.3-5.3 22.6-25.1 41.5-47.7 45.7l-3.8.7v-23.6l13.5-13.7c11.2-11.4 13.5-14.2 13.5-16.7a8 8 0 0 0-7.7-8.2c-3.1 0-4.6 1-11.4 7.7l-7.9 7.6v-24.5c0-23.3-.1-24.7-2.1-27.2a7.48 7.48 0 0 0-10.9-.6c-1.8 1.8-2 3.3-2 16.7v14.7l-5.5-5.4-5.5-5.4V73.3l5.3-1.6c9.1-2.8 12.4-3.1 19.7-1.7zM121.9 191.2a109.73 109.73 0 0 0 3.6 11.4 59.86 59.86 0 0 1 2.5 7.4c0 2.3-18.7 9.7-28.7 11.4l-3.3.5v-44.4l11.8-11.8 11.7-11.7.6 16.2c.4 9 1.2 18.4 1.8 21zm162.1 28c0 25.9.8 24.1-9.1 21.2-5.9-1.7-17-7.3-20.7-10.4l-2.3-1.9 4.6-5.6c7.2-8.9 13.5-22.7 15.1-33.1l.7-4.6 5.8 5.8 5.9 5.8zm-142.5 8.9c9.8 10 25.1 18.4 39.3 21.5l8.2 1.7V277l-7.2-.6a48.07 48.07 0 0 0-11.8.5c-4.2 1-4.6.9-5.9-1.2a61.28 61.28 0 0 0-6.3-6.9c-14.6-14.5-39.6-16.8-56.9-5.3a23.19 23.19 0 0 1-4.4 2.5c-.3 0-.5-6.5-.5-14.4v-14.4l5.8-.7c7.6-.9 22.5-5.8 28.7-9.4a43.53 43.53 0 0 1 6-3c.6-.1 2.9 1.7 5 4zM256 249.5a101.82 101.82 0 0 0 24.3 8l3.7.6V324h-65.8l.5-4c1.3-9.2-3.4-22.5-10.8-30.5l-3.9-4.2v-34.1l4.3-.7a79.85 79.85 0 0 0 22.5-7.3 49.82 49.82 0 0 0 7.8-4.3c.3-.5 2.8 1 5.7 3.2a83.52 83.52 0 0 0 11.7 7.4zm-117.4 24.9c6.2 2.9 11.3 7.8 15.1 14.7 3.6 6.7 6.4 7.6 13.7 4.7 17.6-7 35.5 5 35.6 23.9v6.3h-81.4c-90.6 0-82.6.7-82.6-7 0-9.1 5.9-18.3 14.5-22.5 9.5-4.7 20.1-3.2 28.8 4.1A10 10 0 0 0 93 300c1-.5 2.4-2.7 3.1-4.7 6.4-20 24.7-28.9 42.5-20.9z"/><path d="M29.5 201.2c-2.9 1.6-3.5 2.8-3.5 6.9 0 4.5 2.5 6.9 7.1 6.9 4 0 5.2-.7 6.8-3.7 1.7-3.4 1.3-6.2-1.4-8.8a6.92 6.92 0 0 0-9-1.3z"/></svg>