<svg data-name="Capa 1" xmlns="http://www.w3.org/2000/svg" viewBox="0 0 480.09 480.09"><circle cx="360" cy="244.01" r="16"/><path d="M400 124H272a8 8 0 0 0 0 16h120v24a8 8 0 0 0 16 0v-32a8 8 0 0 0-8-8zM160 348H81a32.78 32.78 0 0 1-23.31-9.66A33.23 33.23 0 0 1 48 315v-31a8 8 0 0 0-16 0v31a49 49 0 0 0 49 49h79a8 8 0 0 0 0-16z"/><path d="M456.24 338.24a64.3 64.3 0 0 0-16.24-9.52V292h24a8 8 0 0 0 8-8v-80a8 8 0 0 0-8-8h-24v-96a8 8 0 0 0-8-8h-32V68a8 8 0 0 0-8-8h-64V36a8 8 0 0 0-8-8H40.68a39.59 39.59 0 0 0-27.79 11.5l-1.38 1.38A39 39 0 0 0 .41 74 7.64 7.64 0 0 0 0 76v257.38A62.64 62.64 0 0 0 62.62 396h209.93a63.88 63.88 0 0 0 103.39 41.92 64 64 0 0 0 80.3-99.69zM456 212v64H352.57a32 32 0 1 1 0-64zM22.82 52.21l1.37-1.37A23.44 23.44 0 0 1 40.68 44H312v16H56a8 8 0 1 0 0 16h328v16H39.32a23.32 23.32 0 0 1-16.5-39.8zM272.55 380H62.62A46.63 46.63 0 0 1 16 333.38V100.22A39.37 39.37 0 0 0 39.32 108H424v88h-71.43a48 48 0 1 0 0 96H424v32.55a62.92 62.92 0 0 0-48 13.55A63.88 63.88 0 0 0 272.55 380zM336 436a48 48 0 1 1 48-48 48 48 0 0 1-48 48zm80 0a47.64 47.64 0 0 1-28.85-9.7 63.53 63.53 0 0 0 0-76.61A48 48 0 1 1 416 436z"/></svg>