<svg data-name="Слой 1" xmlns="http://www.w3.org/2000/svg" viewBox="0 0 479 479"><path d="M151.6 335.26c77.24 0 119.78-45.37 119.78-127.76 0-77.14-109.19-199.79-113.84-205a8.24 8.24 0 0 0-11.88 0C141 7.71 31.82 130.36 31.82 207.5c0 82.39 42.54 127.76 119.78 127.76zm0-315.21c22.86 26.83 103.81 126.12 103.81 187.45 0 51-18 111.79-103.81 111.79S47.79 258.5 47.79 207.5c0-61.33 80.94-160.62 103.81-187.45zm223.59 331.18c45.67 0 71.87-30.48 71.87-83.64 0-49.91-63.33-118.53-66-121.43a8.21 8.21 0 0 0-11.68 0c-2.7 2.9-66 71.52-66 121.43-.06 53.16 26.13 83.64 71.81 83.64zm0-187.58c15.4 17.92 55.9 68.43 55.9 103.94 0 44.91-18.81 67.67-55.9 67.67s-55.9-22.76-55.9-67.67c0-35.51 40.49-86.02 55.9-103.94zM257.4 322c-2 2.31-49.9 57-49.9 93.13 0 40.6 20.37 63.88 55.89 63.88s55.9-23.28 55.9-63.88c0-36.14-47.87-90.82-49.91-93.13a8.24 8.24 0 0 0-12 0zm6 141c-26.48 0-39.92-16.12-39.92-47.91 0-21.71 25-57 39.92-75.45 14.95 18.37 39.93 53.71 39.93 75.45-.01 31.82-13.45 47.91-39.94 47.91z"/><path d="M134.83 303.28a7 7 0 0 0 .8 0 8 8 0 0 0 .8-15.93 58.54 58.54 0 0 1-42.67-21.78c-21.24-27.7-14.21-72.34-14.14-72.78a8 8 0 0 0-15.75-2.62c-.35 2.11-8.27 51.79 17.16 85a73.82 73.82 0 0 0 53.8 28.11zm232.37 16.01a55.59 55.59 0 0 0 39.06-16.82 47.7 47.7 0 0 0 8.74-40.39 8 8 0 0 0-15.74 2.63 32.8 32.8 0 0 1-5.13 27.37 39.77 39.77 0 0 1-26.93 11.24 8 8 0 0 0 0 16zM259 431.93a9.16 9.16 0 0 1-4.41-13.24 8 8 0 1 0-14.29-7.14 25.12 25.12 0 0 0 11.56 34.71A8 8 0 1 0 259 432z"/></svg>