<svg data-name="Capa 1" xmlns="http://www.w3.org/2000/svg" viewBox="0 0 339.97 339.97"><path d="M324.32 305.66h-21V5.12A4.84 4.84 0 0 0 298.21 0h-256a4.84 4.84 0 0 0-5.12 5.12v300.54h-21a4.84 4.84 0 0 0-5.09 5.12v24.07a4.84 4.84 0 0 0 5.09 5.15h307.72a4.84 4.84 0 0 0 5.12-5.12v-24.1c.51-2.56-2.05-5.12-4.61-5.12zM47.33 10.24h245.76v295.42h-13.32V28.16a4.83 4.83 0 0 0-5.12-5.16H65.76a4.84 4.84 0 0 0-5.12 5.12v277.5H47.33zm128 201.22v-84h94.21v84zm94.21 10.24v84h-94.21v-84zm-94.21-104.45v-84h94.21v84zM70.88 211.46v-84h94.21v84zm94.21 10.24v84H70.88v-84zM70.88 117.25v-84h94.21v84zM21.22 329.73V315.9h298v13.83z"/></svg>