<svg data-name="Capa 1" xmlns="http://www.w3.org/2000/svg" viewBox="0 0 512 512"><path d="M55.07 317.63a10 10 0 1 0 2.93 7.08 10.07 10.07 0 0 0-2.93-7.08z"/><path d="M444 0H68a30 30 0 0 0-30 30v259.67a10 10 0 0 0 20 0v-46.19l.11.07a232 232 0 0 1 87.53 111.8A252.6 252.6 0 0 0 266.19 492H151.35l-8.48-9A116.7 116.7 0 0 1 111 402.71a10 10 0 0 0-20 0A136.58 136.58 0 0 0 124.08 492H68a10 10 0 0 1-10-10V363.29a10 10 0 0 0-20 0V482a30 30 0 0 0 30 30h376a30 30 0 0 0 30-30V30a30 30 0 0 0-30-30zm10 123.1a66.13 66.13 0 0 0-32.8-8.68c-19 0-36.82 8-50.18 22.57-27 29.46-27 77.4 0 106.86 13.36 14.55 31.17 22.57 50.18 22.57a66.14 66.14 0 0 0 32.8-8.69v96.41A186.73 186.73 0 0 1 428.57 382a10 10 0 1 0 13.26 15q6.26-5.54 12.17-11.79V482a10 10 0 0 1-10 10H318.75l-13.58-4.82A232.73 232.73 0 0 1 164.4 348.4 252 252 0 0 0 69.36 227L58 219.29V30a10 10 0 0 1 10-10h15.26a195.12 195.12 0 0 1 18.41 82.47V129a10 10 0 0 0 20 0v-26.53A215.29 215.29 0 0 0 105.12 20H211.2c-32.79 46.06-50.84 106.62-50.84 170.87 0 65.17 18.55 126.56 52.25 172.85C247 411 293 437 342.21 437a10 10 0 1 0 0-20c-42.62 0-82.91-23.1-113.43-65.05-64.65-88.82-64.65-233.34 0-322.16 2.45-3.37 5-6.64 7.59-9.79H444a10 10 0 0 1 10 10zm0 24.76V233a47.36 47.36 0 0 1-32.8 13.44c-13.34 0-25.92-5.71-35.44-16.09-20.18-22-20.18-57.81 0-79.82 9.52-10.38 22.1-16.09 35.44-16.09a47.36 47.36 0 0 1 32.8 13.42z"/><path d="M350.61 51.18a10 10 0 0 0-12.81-6c-20.28 7.38-38.94 20.55-54 38.08a10 10 0 1 0 15.18 13c12.8-14.93 28.59-26.1 45.64-32.31a10 10 0 0 0 5.99-12.77zM394 332a10 10 0 0 0-10.56-9.42h-.17a10 10 0 0 0 .56 20h.76A10 10 0 0 0 394 332zm-43.47-13.22c-19.39-5.71-37.21-17.56-51.53-34.25-32.48-37.88-42.28-94.55-24.95-144.37a10 10 0 0 0-18.89-6.57c-19.62 56.42-8.37 120.78 28.66 164 16.84 19.64 38 33.61 61.06 40.42a10.36 10.36 0 0 0 2.83.41 10 10 0 0 0 2.82-19.6z"/></svg>