<svg data-name="Слой 1" xmlns="http://www.w3.org/2000/svg" viewBox="0 0 502 502"><path d="M39.7 1.8C38.1 3.5 38 10.9 38 88.2c0 80.6.1 84.6 1.8 86.1s4.4 1.7 18.5 1.7H75v150H39.2c-33.5 0-36 .1-37.5 1.8S0 336.9 0 414.2c0 80.6.1 84.6 1.8 86.1s17.9 1.7 211.9 1.7c202.2 0 210.1-.1 211.6-1.8s1.7-8.8 1.7-81.5V339h35.8c33.5 0 36-.1 37.5-1.8s1.7-9.1 1.7-86.4c0-80.6-.1-84.6-1.8-86.1s-4.4-1.7-18.5-1.7H465V83.2c0-76.1-.1-80-1.8-81.5S445.3 0 251.3 0C49.1 0 41.2.1 39.7 1.8zM452 34v21h-25.7c-29.1 0-29.3 0-29.3 7.3 0 7.7-.1 7.7 29.2 7.7H452v39H343.8c-99.2 0-108.3.1-110 1.7-2.3 2-2.4 8-.1 10.5 1.5 1.7 6.3 1.8 110 1.8H452v40H51V70h35.7c31.8 0 35.8-.2 37.5-1.7 2.3-2 2.4-8 .1-10.5-1.5-1.7-4-1.8-37.5-1.8H51V13h401zm37 162v20h-44.2c-39.7 0-44.3.2-46 1.7-2.3 2-2.4 8-.1 10.5 1.5 1.7 4.3 1.8 46 1.8H489v42h-80.7c-73.6 0-80.8.1-82.5 1.7-2.3 2-2.4 8-.1 10.5 1.5 1.7 5.4 1.8 82.5 1.8H489v40H88v-96h80.2c73.2 0 80.3-.1 82-1.7 2.3-2 2.4-8 .1-10.5-1.5-1.7-5.4-1.8-82-1.8H88v-40h401zm-75 164.5V382h-37.2c-33.2 0-37.3.2-39 1.7-2.3 2-2.4 8-.1 10.5 1.5 1.7 4 1.8 39 1.8H414v93H13v-40h106.7c97.8 0 106.8-.1 108.5-1.7 2.3-2 2.4-8 .1-10.5-1.5-1.7-6.2-1.8-108.5-1.8H13v-39h24.2c27.5 0 27.8-.1 27.8-7.3 0-7.7-.1-7.7-27.7-7.7H13v-42h401z"/><path d="M185.7 57.8c-2.3 2.5-2.2 8.5.1 10.5 1.7 1.6 8.8 1.7 80.9 1.7 75.3 0 79.1-.1 80.6-1.8 2.3-2.5 2.2-8.5-.1-10.5-1.7-1.6-8.8-1.7-80.9-1.7-75.3 0-79.1.1-80.6 1.8zm-70 53c-2.3 2.5-2.2 8.5.1 10.5 1.6 1.5 4.8 1.7 23.9 1.7 24.7 0 25.3-.2 25.3-7.2 0-6.6-.9-6.8-25.7-6.8-20 0-22.1.2-23.6 1.8zm181 107c-2.3 2.5-2.2 8.5.1 10.5 1.6 1.5 5.1 1.7 27.9 1.7 29.1 0 29.3 0 29.3-7.2 0-6.7-.5-6.8-29.7-6.8-23.9 0-26.1.1-27.6 1.8zm-178 56c-2.3 2.5-2.2 8.5.1 10.5 1.6 1.5 4.8 1.7 23.9 1.7 24.7 0 25.3-.2 25.3-7.2 0-6.6-.9-6.8-25.7-6.8-20 0-22.1.2-23.6 1.8zm99 0c-2.3 2.5-2.2 8.5.1 10.5 1.6 1.5 5.1 1.7 28.4 1.7 29.7 0 29.8 0 29.8-7.2 0-6.7-.4-6.8-30.2-6.8-24.4 0-26.6.1-28.1 1.8zm-103 110c-2.3 2.5-2.2 8.5.1 10.5 1.7 1.6 8.8 1.7 80.9 1.7 75.3 0 79.1-.1 80.6-1.8 2.3-2.5 2.2-8.5-.1-10.5-1.7-1.6-8.8-1.7-80.9-1.7-75.3 0-79.1.1-80.6 1.8zm184 53c-2.3 2.5-2.2 8.5.1 10.5 1.6 1.5 4.8 1.7 23.9 1.7 24.7 0 25.3-.2 25.3-7.2 0-6.6-.9-6.8-25.7-6.8-20 0-22.1.2-23.6 1.8z"/></svg>